<?xml version="1.0" encoding="utf-8"?>
<!-- Generator: Adobe Illustrator 19.2.1, SVG Export Plug-In . SVG Version: 6.00 Build 0)  -->
<svg version="1.1" id="Layer_1" xmlns="http://www.w3.org/2000/svg" xmlns:xlink="http://www.w3.org/1999/xlink" x="0px" y="0px"
	 viewBox="0 0 296.8 248.85" style="enable-background:new 0 0 296.8 248.85;" xml:space="preserve">
<style type="text/css">
	.st0{fill:none;}
	.st1{fill:#FF5F00;}
	.st2{fill:#5F3653;}
</style>
<rect x="-8.5" y="-8.5" class="st0" width="314.22" height="265.85"/>
<g>
	<path class="st1" d="M267.16,112.27c-1.12-1.12-1.74-2.62-1.74-4.22c0-1.6,0.62-3.1,1.74-4.22c1.06-1.06,1.64-2.47,1.64-3.97
		c0-1.5-0.58-2.91-1.64-3.97c-1.12-1.12-1.74-2.62-1.74-4.22s0.62-3.1,1.74-4.22c2.19-2.19,2.19-5.75,0-7.94
		c-1.12-1.12-1.74-2.62-1.74-4.22c0-1.6,0.62-3.1,1.74-4.22c2.19-2.19,2.19-5.75,0-7.94c-1.12-1.12-1.74-2.62-1.74-4.22
		c0-1.6,0.62-3.1,1.74-4.22c2.19-2.19,2.19-5.75,0-7.94c-1.12-1.12-1.74-2.62-1.74-4.22c0-1.6,0.62-3.1,1.74-4.22
		c2.19-2.19,2.15-5.78-0.07-8.01c-1.09-1.09-2.54-1.69-4.08-1.69c-1.5,0-2.9,0.57-3.94,1.62c-1.12,1.12-2.62,1.74-4.22,1.74
		c-1.6,0-3.1-0.62-4.22-1.74c-1.06-1.06-2.47-1.64-3.97-1.64s-2.91,0.58-3.97,1.64c-1.12,1.12-2.62,1.74-4.22,1.74
		s-3.1-0.62-4.22-1.74c-1.06-1.06-2.46-1.64-3.97-1.64s-2.91,0.58-3.97,1.64c-1.12,1.12-2.62,1.74-4.22,1.74s-3.1-0.62-4.22-1.74
		c-1.06-1.06-2.47-1.64-3.97-1.64c-1.5,0-2.91,0.58-3.97,1.64c-1.12,1.12-2.62,1.74-4.22,1.74s-3.1-0.62-4.22-1.74
		c-1.06-1.06-2.46-1.64-3.97-1.64s-2.91,0.58-3.97,1.64c-1.12,1.12-2.62,1.74-4.22,1.74c-1.6,0-3.1-0.62-4.22-1.74
		c-1.06-1.06-2.46-1.64-3.97-1.64s-2.91,0.58-3.97,1.64c-1.12,1.12-2.62,1.74-4.22,1.74c-1.6,0-3.1-0.62-4.22-1.74
		c-1.06-1.06-2.47-1.64-3.97-1.64c-1.5,0-2.91,0.58-3.97,1.64c-1.12,1.12-2.62,1.74-4.22,1.74s-3.1-0.62-4.22-1.74
		c-1.06-1.06-2.46-1.64-3.97-1.64s-2.91,0.58-3.97,1.64c-1.12,1.12-2.62,1.74-4.22,1.74c-1.6,0-3.1-0.62-4.22-1.74
		c-1.06-1.06-2.46-1.64-3.97-1.64s-2.91,0.58-3.97,1.64c-1.12,1.12-2.62,1.74-4.22,1.74c-1.6,0-3.1-0.62-4.22-1.74
		c-1.06-1.06-2.46-1.64-3.97-1.64s-2.91,0.58-3.97,1.64c-1.12,1.12-2.62,1.74-4.22,1.74c-1.6,0-3.1-0.62-4.22-1.74
		c-1.06-1.06-2.47-1.64-3.97-1.64s-2.91,0.58-3.97,1.64c-1.12,1.12-2.62,1.74-4.22,1.74c-1.6,0-3.1-0.62-4.22-1.74
		c-1.06-1.06-2.46-1.64-3.97-1.64s-2.91,0.58-3.97,1.64c-1.12,1.12-2.62,1.74-4.22,1.74s-3.1-0.62-4.22-1.74
		c-1.06-1.06-2.46-1.64-3.97-1.64c-1.5,0-2.91,0.58-3.97,1.64c-1.12,1.12-2.62,1.74-4.22,1.74c-1.6,0-3.1-0.62-4.22-1.74
		c-1.06-1.06-2.46-1.64-3.97-1.64s-2.91,0.58-3.97,1.64c-1.12,1.12-2.62,1.74-4.22,1.74s-3.1-0.62-4.22-1.74
		c-1.04-1.04-2.44-1.62-3.94-1.62c-1.54,0-2.99,0.6-4.08,1.69c-2.23,2.23-2.26,5.82-0.08,8.01c1.13,1.13,1.75,2.62,1.75,4.22
		s-0.62,3.09-1.75,4.22c-2.19,2.19-2.19,5.75,0,7.94c1.12,1.12,1.74,2.62,1.74,4.22c0,1.6-0.62,3.1-1.74,4.22
		c-2.19,2.19-2.19,5.75,0,7.94c1.12,1.12,1.74,2.62,1.74,4.22s-0.62,3.1-1.74,4.22c-2.19,2.19-2.19,5.75,0,7.94
		c1.12,1.12,1.74,2.62,1.74,4.22c0,1.6-0.62,3.1-1.74,4.22c-2.19,2.19-2.19,5.75,0,7.94c1.12,1.12,1.74,2.62,1.74,4.22
		s-0.62,3.1-1.74,4.22c-2.19,2.19-2.19,5.75,0,7.94c1.12,1.12,1.74,2.62,1.74,4.22c0,1.6-0.62,3.1-1.74,4.22
		c-1.05,1.06-1.63,2.47-1.62,3.99c0.01,1.52,0.61,2.95,1.69,4.02c1.09,1.09,2.54,1.69,4.07,1.69c1.5,0,2.9-0.57,3.94-1.62
		c1.12-1.12,2.62-1.74,4.22-1.74s3.1,0.62,4.22,1.74c1.06,1.06,2.46,1.64,3.97,1.64s2.91-0.58,3.97-1.64
		c1.14-1.14,2.65-1.76,4.25-1.76c1.56,0,3.03,0.6,4.11,1.69c1.1,1.1,1.7,2.58,1.69,4.17c-0.01,1.58-0.64,3.07-1.76,4.2
		c-1.06,1.06-1.64,2.46-1.64,3.97c0,1.5,0.58,2.91,1.64,3.97c1.12,1.12,1.75,2.62,1.75,4.22s-0.62,3.09-1.75,4.22
		c-1.06,1.06-1.64,2.46-1.64,3.97s0.58,2.91,1.64,3.97c1.13,1.13,1.75,2.62,1.77,4.2c0.01,1.58-0.59,3.06-1.69,4.16
		c-1.09,1.09-2.55,1.69-4.11,1.69c-1.6,0-3.11-0.63-4.25-1.76c-1.06-1.06-2.46-1.64-3.97-1.64c-1.5,0-2.91,0.58-3.97,1.64
		c-1.12,1.12-2.62,1.74-4.22,1.74s-3.1-0.62-4.22-1.74c-1.04-1.04-2.44-1.62-3.94-1.62c-1.54,0-2.98,0.6-4.07,1.69
		c-1.08,1.08-1.68,2.5-1.69,4.02c-0.01,1.52,0.56,2.93,1.62,3.99c1.12,1.12,1.74,2.62,1.74,4.22c0,1.6-0.62,3.1-1.74,4.22
		c-2.19,2.19-2.19,5.75,0,7.94c1.12,1.12,1.74,2.62,1.74,4.22c0,1.6-0.62,3.1-1.74,4.22c-1.05,1.06-1.63,2.47-1.62,3.99
		c0.01,1.52,0.61,2.95,1.69,4.02c1.09,1.09,2.54,1.69,4.07,1.69c1.5,0,2.89-0.57,3.94-1.62c1.12-1.12,2.62-1.74,4.22-1.74
		s3.1,0.62,4.22,1.74c1.06,1.06,2.47,1.64,3.97,1.64s2.91-0.58,3.97-1.64c1.12-1.12,2.62-1.74,4.22-1.74c1.6,0,3.1,0.62,4.22,1.74
		c1.06,1.06,2.47,1.64,3.97,1.64c1.5,0,2.91-0.58,3.97-1.64c1.12-1.12,2.62-1.74,4.22-1.74s3.1,0.62,4.22,1.74
		c1.06,1.06,2.47,1.64,3.97,1.64c1.5,0,2.91-0.58,3.97-1.64c1.12-1.12,2.62-1.74,4.22-1.74c1.6,0,3.1,0.62,4.22,1.74
		c1.06,1.06,2.47,1.64,3.97,1.64s2.91-0.58,3.97-1.64c1.12-1.12,2.62-1.74,4.22-1.74c1.6,0,3.1,0.62,4.22,1.74
		c1.04,1.04,2.44,1.62,3.94,1.62c1.54,0,2.98-0.6,4.07-1.69c1.08-1.08,1.68-2.5,1.69-4.02c0.01-1.52-0.56-2.93-1.62-3.99
		c-2.33-2.33-2.33-6.11,0-8.44c2.19-2.19,2.19-5.75,0-7.94c-1.12-1.12-1.74-2.62-1.74-4.22c0-1.6,0.62-3.09,1.74-4.22
		c2.19-2.19,2.19-5.75,0-7.94c-2.33-2.33-2.36-6.08-0.08-8.36c1.09-1.09,2.55-1.69,4.11-1.69c1.6,0,3.11,0.63,4.25,1.76
		c1.06,1.06,2.47,1.64,3.97,1.64s2.91-0.58,3.97-1.64c1.14-1.14,2.65-1.76,4.25-1.76c1.56,0,3.03,0.6,4.11,1.69
		c2.29,2.29,2.25,6.04-0.08,8.36c-1.06,1.06-1.64,2.46-1.64,3.97c0,1.5,0.58,2.91,1.64,3.97c1.12,1.12,1.74,2.62,1.74,4.22
		c0,1.6-0.62,3.1-1.74,4.22c-1.06,1.06-1.64,2.46-1.64,3.97c0,1.5,0.58,2.91,1.64,3.97c2.33,2.33,2.33,6.11,0,8.44
		c-1.06,1.06-1.63,2.47-1.62,3.99c0.01,1.52,0.61,2.95,1.69,4.02c1.09,1.09,2.54,1.69,4.07,1.69c1.5,0,2.89-0.57,3.94-1.62
		c1.12-1.12,2.62-1.74,4.22-1.74s3.1,0.62,4.22,1.74c1.04,1.04,2.44,1.62,3.94,1.62c1.54,0,2.99-0.6,4.08-1.69
		c2.23-2.23,2.26-5.82,0.08-8.01c-1.12-1.12-1.74-2.62-1.74-4.22c0-1.6,0.62-3.1,1.74-4.22c2.19-2.19,2.19-5.75,0-7.94
		c-1.12-1.12-1.75-2.61-1.76-4.2c-0.02-1.58,0.58-3.06,1.69-4.17c1.09-1.09,2.55-1.69,4.11-1.69c1.6,0,3.11,0.63,4.25,1.76
		c1.06,1.06,2.46,1.64,3.97,1.64c1.5,0,2.91-0.58,3.97-1.64c1.12-1.12,2.62-1.74,4.22-1.74c1.6,0,3.1,0.62,4.22,1.74
		c1.06,1.06,2.46,1.64,3.97,1.64c1.5,0,2.91-0.58,3.97-1.64c1.14-1.14,2.65-1.76,4.25-1.76c1.56,0,3.02,0.6,4.11,1.69
		c1.1,1.1,1.7,2.58,1.69,4.17c-0.02,1.58-0.64,3.07-1.76,4.2c-2.19,2.19-2.19,5.75,0,7.94c1.12,1.12,1.74,2.62,1.74,4.22
		s-0.62,3.1-1.74,4.22c-2.19,2.19-2.15,5.78,0.07,8.01c1.09,1.09,2.54,1.69,4.08,1.69c1.5,0,2.89-0.57,3.94-1.62
		c1.12-1.12,2.62-1.74,4.22-1.74s3.1,0.62,4.22,1.74c1.06,1.06,2.47,1.64,3.97,1.64s2.91-0.58,3.97-1.64
		c1.12-1.12,2.62-1.74,4.22-1.74s3.1,0.62,4.22,1.74c1.06,1.06,2.47,1.64,3.97,1.64c1.5,0,2.91-0.58,3.97-1.64
		c1.12-1.12,2.62-1.74,4.22-1.74c1.6,0,3.1,0.62,4.22,1.74c1.04,1.04,2.44,1.62,3.94,1.62c1.54,0,2.98-0.6,4.08-1.69
		c1.08-1.08,1.68-2.5,1.69-4.02c0.01-1.52-0.56-2.93-1.62-3.99c-2.33-2.33-2.33-6.11,0-8.44c1.06-1.06,1.64-2.47,1.64-3.97
		c0-1.5-0.58-2.91-1.64-3.97c-1.12-1.12-1.74-2.62-1.74-4.22s0.62-3.1,1.74-4.22c1.06-1.06,1.64-2.47,1.64-3.97
		s-0.58-2.91-1.64-3.97c-2.33-2.33-2.33-6.11,0-8.44c1.06-1.05,1.64-2.46,1.64-3.97c0-1.5-0.58-2.91-1.64-3.97
		c-1.12-1.12-1.74-2.62-1.74-4.22s0.62-3.1,1.74-4.22c1.06-1.06,1.64-2.47,1.64-3.97c0-1.5-0.58-2.91-1.64-3.97
		c-2.33-2.33-2.33-6.11,0-8.44c1.06-1.06,1.64-2.46,1.64-3.97s-0.58-2.91-1.64-3.97c-1.12-1.12-1.74-2.62-1.74-4.22
		s0.62-3.1,1.74-4.22C269.35,118.01,269.35,114.45,267.16,112.27z M226.24,194.08c-1.1,1.1-2.58,1.71-4.15,1.71
		s-3.04-0.61-4.15-1.71c-1.11-1.11-1.71-2.58-1.71-4.14s0.61-3.04,1.71-4.14c1.1-1.1,2.58-1.71,4.15-1.71s3.04,0.61,4.15,1.71
		c1.11,1.11,1.71,2.58,1.71,4.14S227.35,192.97,226.24,194.08z M217.95,202.16c1.1-1.1,2.58-1.71,4.15-1.71s3.04,0.61,4.15,1.71
		c2.29,2.29,2.29,6,0,8.29c-1.1,1.1-2.58,1.71-4.15,1.71s-3.04-0.61-4.15-1.71C215.66,208.17,215.66,204.45,217.95,202.16z
		 M226.24,177.7c-1.1,1.1-2.58,1.71-4.15,1.71s-3.04-0.61-4.15-1.71c-1.11-1.11-1.71-2.58-1.71-4.14c0-1.57,0.61-3.04,1.71-4.15
		c1.1-1.1,2.58-1.71,4.15-1.71s3.04,0.61,4.15,1.71C228.53,171.7,228.53,175.41,226.24,177.7z M209.86,46.68
		c-1.1,1.1-2.57,1.71-4.14,1.71s-3.04-0.61-4.15-1.71s-1.71-2.58-1.71-4.15s0.61-3.04,1.71-4.14s2.58-1.71,4.15-1.71
		c1.57,0,3.04,0.61,4.14,1.71c1.11,1.11,1.71,2.58,1.71,4.15S210.97,45.58,209.86,46.68z M226.24,63.06
		c-1.1,1.1-2.58,1.71-4.15,1.71s-3.04-0.61-4.15-1.71c-1.1-1.1-1.71-2.57-1.71-4.14s0.61-3.04,1.71-4.15
		c1.1-1.1,2.58-1.71,4.15-1.71s3.04,0.61,4.15,1.71c1.1,1.1,1.71,2.58,1.71,4.15S227.34,61.96,226.24,63.06z M254.85,69.44
		c1.57,0,3.04,0.61,4.15,1.71c1.1,1.1,1.71,2.57,1.71,4.14c0,1.57-0.61,3.04-1.71,4.15c-1.1,1.1-2.58,1.71-4.15,1.71
		c-1.57,0-3.04-0.61-4.14-1.71c-2.29-2.29-2.29-6,0-8.29C251.81,70.04,253.28,69.44,254.85,69.44z M216.19,151.28
		c-1.21,1.22-3.36,1.22-4.57,0c-0.61-0.61-0.94-1.42-0.94-2.29c0-0.87,0.33-1.68,0.94-2.29c0.61-0.61,1.42-0.94,2.29-0.94
		s1.68,0.33,2.29,0.94c0.61,0.61,0.94,1.42,0.94,2.29S216.8,150.67,216.19,151.28z M232.57,102.14c-1.22,1.22-3.36,1.22-4.57,0
		c-0.61-0.61-0.94-1.42-0.94-2.29s0.33-1.68,0.94-2.29c0.61-0.61,1.42-0.94,2.29-0.94s1.68,0.33,2.29,0.94
		C233.83,98.83,233.83,100.88,232.57,102.14z M211.62,97.57c0.61-0.61,1.42-0.94,2.29-0.94s1.68,0.33,2.29,0.94
		c0.61,0.61,0.94,1.42,0.94,2.29s-0.33,1.68-0.94,2.29c-1.22,1.22-3.36,1.22-4.57,0C210.36,100.88,210.36,98.83,211.62,97.57z
		 M211.62,113.95c0.61-0.61,1.42-0.94,2.29-0.94s1.68,0.33,2.29,0.94c0.61,0.61,0.94,1.42,0.94,2.29c0,0.87-0.33,1.68-0.94,2.29
		c-1.22,1.22-3.36,1.22-4.57,0c-0.61-0.61-0.95-1.42-0.95-2.29S211.01,114.56,211.62,113.95z M226.24,128.57
		c-1.1,1.1-2.58,1.71-4.15,1.71s-3.04-0.61-4.15-1.71c-2.29-2.29-2.29-6,0-8.29c1.1-1.1,2.58-1.71,4.15-1.71s3.04,0.61,4.15,1.71
		C228.53,122.56,228.53,126.28,226.24,128.57z M222.1,113.9c-1.57,0-3.04-0.61-4.15-1.71c-1.11-1.11-1.71-2.58-1.71-4.14
		c0-1.57,0.61-3.04,1.71-4.15c1.1-1.1,2.58-1.71,4.15-1.71s3.04,0.61,4.15,1.71c2.29,2.29,2.29,6,0,8.29
		C225.14,113.29,223.67,113.9,222.1,113.9z M226.24,95.81c-1.1,1.1-2.58,1.71-4.15,1.71s-3.04-0.61-4.15-1.71
		c-1.1-1.1-1.71-2.57-1.71-4.14s0.61-3.04,1.71-4.14c1.1-1.1,2.58-1.71,4.15-1.71s3.04,0.61,4.15,1.71
		C228.53,89.81,228.53,93.53,226.24,95.81z M211.62,81.19c0.61-0.61,1.42-0.94,2.29-0.94s1.68,0.33,2.29,0.94
		c0.61,0.61,0.95,1.42,0.95,2.29s-0.34,1.68-0.95,2.29c-1.22,1.22-3.36,1.22-4.57,0c-0.61-0.61-0.95-1.42-0.95-2.29
		S211.01,81.8,211.62,81.19z M211.62,69.39c-0.61-0.61-0.94-1.42-0.94-2.29c0-0.87,0.33-1.68,0.94-2.29
		c0.61-0.61,1.42-0.94,2.29-0.94s1.68,0.33,2.29,0.94c0.61,0.61,0.94,1.42,0.94,2.29s-0.33,1.68-0.94,2.29
		C214.98,70.61,212.84,70.61,211.62,69.39z M238.47,130.28c-1.57,0-3.04-0.61-4.15-1.71c-1.1-1.1-1.71-2.58-1.71-4.15
		s0.61-3.04,1.71-4.14c1.1-1.1,2.57-1.71,4.15-1.71c1.57,0,3.04,0.61,4.14,1.71s1.71,2.57,1.71,4.14s-0.61,3.04-1.71,4.15
		S240.04,130.28,238.47,130.28z M238.47,102.19c1.57,0,3.04,0.61,4.14,1.71c1.1,1.1,1.71,2.57,1.71,4.15s-0.61,3.04-1.71,4.14
		c-1.1,1.1-2.58,1.71-4.14,1.71c-1.57,0-3.04-0.61-4.15-1.71s-1.71-2.57-1.71-4.14s0.61-3.04,1.71-4.15S236.9,102.19,238.47,102.19z
		 M248.95,102.14c-1.22,1.22-3.36,1.22-4.57,0c-0.61-0.61-0.94-1.42-0.94-2.29s0.33-1.68,0.94-2.29c0.61-0.61,1.42-0.94,2.29-0.94
		s1.68,0.33,2.29,0.94C250.21,98.83,250.21,100.88,248.95,102.14z M244.37,113.95c0.61-0.61,1.42-0.94,2.29-0.94
		s1.68,0.33,2.29,0.94c1.26,1.26,1.26,3.31,0,4.57c-1.22,1.22-3.36,1.22-4.57,0c-0.61-0.61-0.94-1.42-0.94-2.29
		C243.43,115.37,243.76,114.56,244.37,113.95z M254.85,146.66c-1.57,0-3.04-0.61-4.14-1.71c-2.29-2.29-2.29-6,0-8.29
		c1.1-1.1,2.58-1.71,4.14-1.71c1.57,0,3.04,0.61,4.15,1.71c1.1,1.1,1.71,2.58,1.71,4.15s-0.61,3.04-1.71,4.14
		S256.42,146.66,254.85,146.66z M254.85,130.28c-1.57,0-3.04-0.61-4.14-1.71c-2.29-2.29-2.29-6,0-8.29c1.1-1.1,2.57-1.71,4.14-1.71
		s3.04,0.61,4.15,1.71c1.1,1.1,1.71,2.57,1.71,4.14c0,1.57-0.61,3.04-1.71,4.15S256.42,130.28,254.85,130.28z M254.85,113.9
		c-1.57,0-3.04-0.61-4.14-1.71c-2.29-2.29-2.29-6,0-8.29c1.1-1.1,2.58-1.71,4.14-1.71c1.57,0,3.04,0.61,4.15,1.71
		c1.1,1.1,1.71,2.57,1.71,4.15s-0.61,3.04-1.71,4.14C257.89,113.29,256.42,113.9,254.85,113.9z M254.85,97.52
		c-1.57,0-3.04-0.61-4.14-1.71c-1.1-1.1-1.71-2.57-1.71-4.14s0.61-3.04,1.71-4.14c1.1-1.1,2.57-1.71,4.14-1.71s3.04,0.61,4.15,1.71
		c1.1,1.1,1.71,2.57,1.71,4.14s-0.61,3.04-1.71,4.14C257.89,96.92,256.42,97.52,254.85,97.52z M248.95,85.77
		c-1.22,1.22-3.36,1.22-4.57,0c-0.61-0.61-0.94-1.42-0.94-2.29c0-0.87,0.33-1.68,0.94-2.29c0.61-0.61,1.42-0.94,2.29-0.94
		s1.68,0.33,2.29,0.94C250.21,82.45,250.21,84.51,248.95,85.77z M242.62,95.81c-1.1,1.1-2.57,1.71-4.14,1.71
		c-1.57,0-3.04-0.61-4.15-1.71c-1.1-1.1-1.71-2.57-1.71-4.14s0.61-3.04,1.71-4.14c1.1-1.1,2.57-1.71,4.15-1.71
		c1.57,0,3.04,0.61,4.14,1.71s1.71,2.57,1.71,4.14S243.72,94.71,242.62,95.81z M217.95,136.66c1.1-1.1,2.58-1.71,4.15-1.71
		s3.04,0.61,4.15,1.71c2.29,2.29,2.29,6,0,8.29c-1.1,1.1-2.58,1.71-4.15,1.71s-3.04-0.61-4.15-1.71c-1.11-1.11-1.71-2.58-1.71-4.15
		S216.84,137.76,217.95,136.66z M234.33,136.66c1.1-1.1,2.57-1.71,4.15-1.71c1.57,0,3.04,0.61,4.14,1.71
		c1.1,1.1,1.71,2.58,1.71,4.15s-0.61,3.04-1.71,4.14s-2.57,1.71-4.14,1.71c-1.57,0-3.04-0.61-4.15-1.71
		c-1.1-1.1-1.71-2.57-1.71-4.14S233.22,137.76,234.33,136.66z M250.7,169.41c1.1-1.1,2.57-1.71,4.14-1.71s3.04,0.61,4.15,1.71
		c1.1,1.1,1.71,2.57,1.71,4.15c0,1.57-0.61,3.04-1.71,4.14c-1.1,1.1-2.58,1.71-4.15,1.71s-3.04-0.61-4.14-1.71
		C248.42,175.41,248.42,171.7,250.7,169.41z M258.99,161.32c-1.1,1.1-2.58,1.71-4.15,1.71s-3.04-0.61-4.14-1.71
		c-1.1-1.1-1.71-2.57-1.71-4.14c0-1.57,0.61-3.04,1.71-4.15c1.1-1.1,2.58-1.71,4.14-1.71c1.57,0,3.04,0.61,4.15,1.71
		c1.1,1.1,1.71,2.58,1.71,4.15C260.7,158.75,260.1,160.22,258.99,161.32z M258.99,63.06c-1.1,1.1-2.58,1.71-4.15,1.71
		s-3.04-0.61-4.14-1.71c-1.1-1.1-1.71-2.57-1.71-4.14c0-1.57,0.61-3.04,1.71-4.15s2.58-1.71,4.14-1.71c1.57,0,3.04,0.61,4.15,1.71
		s1.71,2.57,1.71,4.15C260.7,60.49,260.1,61.96,258.99,63.06z M226.24,79.44c-1.1,1.1-2.58,1.71-4.15,1.71s-3.04-0.61-4.15-1.71
		c-2.29-2.29-2.29-6,0-8.29c1.1-1.1,2.58-1.71,4.15-1.71s3.04,0.61,4.15,1.71C228.53,73.43,228.53,77.15,226.24,79.44z
		 M205.72,53.06c1.57,0,3.04,0.61,4.14,1.71c1.1,1.1,1.71,2.58,1.71,4.15s-0.61,3.04-1.71,4.14c-1.1,1.1-2.57,1.71-4.14,1.71
		s-3.04-0.61-4.15-1.71c-1.1-1.1-1.71-2.57-1.71-4.14s0.61-3.04,1.71-4.15S204.15,53.06,205.72,53.06z M205.72,69.44
		c1.57,0,3.04,0.61,4.14,1.71c2.29,2.29,2.29,6,0,8.29c-1.1,1.1-2.57,1.71-4.14,1.71s-3.04-0.61-4.15-1.71
		c-1.1-1.1-1.71-2.57-1.71-4.15c0-1.57,0.61-3.04,1.71-4.14C202.68,70.04,204.15,69.44,205.72,69.44z M205.72,85.81
		c1.57,0,3.04,0.61,4.14,1.71c2.29,2.29,2.29,6,0,8.29c-1.1,1.1-2.57,1.71-4.14,1.71c-1.57,0-3.04-0.61-4.15-1.71
		c-1.1-1.1-1.71-2.57-1.71-4.14s0.61-3.04,1.71-4.14S204.15,85.81,205.72,85.81z M205.72,102.19c1.57,0,3.04,0.61,4.14,1.71
		c2.29,2.29,2.29,6,0,8.29c-1.1,1.1-2.57,1.71-4.14,1.71s-3.04-0.61-4.15-1.71c-1.1-1.1-1.71-2.57-1.71-4.14s0.61-3.04,1.71-4.15
		C202.68,102.8,204.15,102.19,205.72,102.19z M205.72,118.57c1.57,0,3.04,0.61,4.14,1.71c2.29,2.29,2.29,6,0,8.29
		c-1.1,1.1-2.57,1.71-4.14,1.71s-3.04-0.61-4.15-1.71s-1.71-2.58-1.71-4.15s0.61-3.04,1.71-4.14S204.15,118.57,205.72,118.57z
		 M205.72,134.95c1.57,0,3.04,0.61,4.14,1.71c2.29,2.29,2.29,6,0,8.29c-1.1,1.1-2.57,1.71-4.14,1.71c-1.57,0-3.04-0.61-4.15-1.71
		s-1.71-2.57-1.71-4.14s0.61-3.04,1.71-4.15C202.68,135.55,204.15,134.95,205.72,134.95z M205.72,151.32c1.57,0,3.04,0.61,4.14,1.71
		c2.29,2.29,2.29,6,0,8.29c-1.1,1.1-2.57,1.71-4.14,1.71s-3.04-0.61-4.15-1.71c-1.1-1.1-1.71-2.57-1.71-4.14
		c0-1.57,0.61-3.04,1.71-4.15C202.68,151.93,204.15,151.32,205.72,151.32z M226.24,161.32c-1.1,1.1-2.58,1.71-4.15,1.71
		s-3.04-0.61-4.15-1.71c-2.29-2.29-2.29-6,0-8.29c1.1-1.1,2.58-1.71,4.15-1.71s3.04,0.61,4.15,1.71
		C228.53,155.32,228.53,159.04,226.24,161.32z M238.47,151.32c1.57,0,3.04,0.61,4.14,1.71c1.1,1.1,1.71,2.58,1.71,4.15
		c0,1.57-0.61,3.04-1.71,4.14c-1.1,1.1-2.57,1.71-4.14,1.71c-1.57,0-3.04-0.61-4.15-1.71c-1.1-1.1-1.71-2.57-1.71-4.14
		c0-1.57,0.61-3.04,1.71-4.15C235.43,151.93,236.9,151.32,238.47,151.32z M238.47,167.7c1.57,0,3.04,0.61,4.14,1.71
		c1.1,1.1,1.71,2.57,1.71,4.15c0,1.57-0.61,3.04-1.71,4.14c-1.1,1.1-2.58,1.71-4.14,1.71c-1.57,0-3.04-0.61-4.15-1.71
		s-1.71-2.57-1.71-4.14c0-1.57,0.61-3.04,1.71-4.15C235.43,168.31,236.9,167.7,238.47,167.7z M260.75,53.01
		c-0.61-0.61-0.94-1.42-0.94-2.29s0.33-1.68,0.94-2.29c0.61-0.61,1.42-0.94,2.29-0.94c0.87,0,1.68,0.33,2.29,0.94
		c0.61,0.61,0.94,1.42,0.94,2.29s-0.33,1.68-0.94,2.29C264.1,54.23,261.97,54.23,260.75,53.01z M258.99,46.68
		c-1.1,1.1-2.58,1.71-4.15,1.71c-1.57,0-3.04-0.61-4.14-1.71c-2.29-2.29-2.29-6,0-8.29c1.1-1.1,2.57-1.71,4.14-1.71
		s3.04,0.61,4.15,1.71s1.71,2.57,1.71,4.14S260.1,45.58,258.99,46.68z M248.95,36.64c-1.22,1.22-3.36,1.22-4.57,0
		c-0.61-0.61-0.94-1.42-0.94-2.29c0-0.87,0.33-1.68,0.94-2.29c0.61-0.61,1.42-0.94,2.29-0.94s1.68,0.33,2.29,0.94
		C250.21,33.32,250.21,35.37,248.95,36.64z M242.62,46.68c-1.1,1.1-2.58,1.71-4.14,1.71c-1.57,0-3.04-0.61-4.15-1.71
		c-1.1-1.1-1.71-2.58-1.71-4.15s0.61-3.04,1.71-4.14c1.1-1.1,2.57-1.71,4.15-1.71c1.57,0,3.04,0.61,4.14,1.71s1.71,2.57,1.71,4.14
		S243.72,45.58,242.62,46.68z M238.47,53.06c1.57,0,3.04,0.61,4.14,1.71s1.71,2.58,1.71,4.15s-0.61,3.04-1.71,4.14
		c-1.1,1.1-2.57,1.71-4.14,1.71c-1.57,0-3.04-0.61-4.15-1.71c-1.1-1.1-1.71-2.57-1.71-4.14s0.61-3.04,1.71-4.15
		C235.43,53.67,236.9,53.06,238.47,53.06z M238.47,69.44c1.57,0,3.04,0.61,4.14,1.71c1.1,1.1,1.71,2.57,1.71,4.14
		c0,1.57-0.61,3.04-1.71,4.15c-1.1,1.1-2.58,1.71-4.14,1.71c-1.57,0-3.04-0.61-4.15-1.71s-1.71-2.57-1.71-4.15
		c0-1.57,0.61-3.04,1.71-4.14S236.9,69.44,238.47,69.44z M232.57,85.77c-1.22,1.22-3.36,1.22-4.57,0c-0.61-0.61-0.94-1.42-0.94-2.29
		c0-0.87,0.33-1.68,0.94-2.29c0.61-0.61,1.42-0.94,2.29-0.94s1.68,0.33,2.29,0.94C233.83,82.45,233.83,84.51,232.57,85.77z
		 M226.24,46.68c-1.1,1.1-2.58,1.71-4.15,1.71s-3.04-0.61-4.15-1.71c-2.29-2.29-2.29-6,0-8.29c1.1-1.1,2.58-1.71,4.15-1.71
		s3.04,0.61,4.15,1.71C228.53,40.68,228.53,44.4,226.24,46.68z M216.19,53.01c-1.22,1.22-3.36,1.22-4.57,0
		c-0.61-0.61-0.94-1.42-0.94-2.29s0.33-1.68,0.94-2.29c0.61-0.61,1.42-0.94,2.29-0.94s1.68,0.33,2.29,0.94
		c0.61,0.61,0.94,1.42,0.94,2.29C217.14,51.59,216.8,52.4,216.19,53.01z M201.57,169.41c1.1-1.1,2.58-1.71,4.15-1.71
		s3.04,0.61,4.14,1.71c2.29,2.29,2.29,6,0,8.29c-1.1,1.1-2.57,1.71-4.14,1.71c-1.57,0-3.04-0.61-4.15-1.71
		c-1.1-1.1-1.71-2.57-1.71-4.14C199.86,171.98,200.47,170.51,201.57,169.41z M211.62,163.08c0.61-0.61,1.42-0.94,2.29-0.94
		s1.68,0.33,2.29,0.94c0.61,0.61,0.94,1.42,0.94,2.29c0,0.87-0.33,1.68-0.94,2.29c-1.21,1.22-3.36,1.22-4.57,0
		c-0.61-0.61-0.95-1.42-0.95-2.29C210.68,164.5,211.01,163.69,211.62,163.08z M228,146.7c0.61-0.61,1.42-0.94,2.29-0.94
		s1.68,0.33,2.29,0.94c0.61,0.61,0.94,1.42,0.94,2.29s-0.33,1.68-0.94,2.29c-1.22,1.22-3.36,1.22-4.57,0
		c-0.61-0.61-0.94-1.42-0.94-2.29S227.39,147.31,228,146.7z M234.33,202.16c1.1-1.1,2.57-1.71,4.15-1.71c1.57,0,3.04,0.61,4.14,1.71
		s1.71,2.58,1.71,4.15s-0.61,3.04-1.71,4.14c-1.1,1.1-2.58,1.71-4.14,1.71c-1.57,0-3.04-0.61-4.15-1.71s-1.71-2.57-1.71-4.14
		S233.22,203.27,234.33,202.16z M242.62,194.08c-1.1,1.1-2.57,1.71-4.14,1.71c-1.57,0-3.04-0.61-4.15-1.71
		c-1.1-1.1-1.71-2.57-1.71-4.14c0-1.57,0.61-3.04,1.71-4.14c1.1-1.1,2.57-1.71,4.15-1.71c1.57,0,3.04,0.61,4.14,1.71
		s1.71,2.57,1.71,4.14C244.33,191.5,243.72,192.97,242.62,194.08z M244.37,179.46c0.61-0.61,1.42-0.94,2.29-0.94
		s1.68,0.33,2.29,0.94c1.26,1.26,1.26,3.31,0,4.57c-1.22,1.22-3.36,1.22-4.57,0c-0.61-0.61-0.94-1.42-0.94-2.29
		S243.76,180.07,244.37,179.46z M250.7,185.79c1.1-1.1,2.57-1.71,4.14-1.71s3.04,0.61,4.15,1.71s1.71,2.57,1.71,4.14
		c0,1.57-0.61,3.04-1.71,4.14c-1.1,1.1-2.58,1.71-4.15,1.71s-3.04-0.61-4.14-1.71c-1.11-1.11-1.71-2.58-1.71-4.14
		S249.6,186.89,250.7,185.79z M250.7,202.16c1.1-1.1,2.57-1.71,4.14-1.71s3.04,0.61,4.15,1.71s1.71,2.58,1.71,4.15
		s-0.61,3.04-1.71,4.14c-1.1,1.1-2.58,1.71-4.15,1.71s-3.04-0.61-4.14-1.71c-1.1-1.1-1.71-2.57-1.71-4.14S249.6,203.27,250.7,202.16
		z M260.75,200.41c-0.61-0.61-0.94-1.42-0.94-2.29s0.33-1.68,0.94-2.29c0.61-0.61,1.42-0.94,2.29-0.94c0.87,0,1.68,0.33,2.29,0.94
		c0.61,0.61,0.94,1.42,0.94,2.29s-0.33,1.68-0.94,2.29C264.11,201.62,261.97,201.62,260.75,200.41z M260.75,184.03
		c-0.61-0.61-0.94-1.42-0.94-2.29s0.33-1.68,0.94-2.29c0.61-0.61,1.42-0.94,2.29-0.94c0.87,0,1.68,0.33,2.29,0.94
		c1.26,1.26,1.26,3.31,0,4.57C264.11,185.25,261.97,185.25,260.75,184.03z M260.75,151.28c-0.61-0.61-0.94-1.42-0.94-2.29
		c0-0.87,0.33-1.68,0.94-2.29c0.61-0.61,1.42-0.94,2.29-0.94s1.68,0.33,2.29,0.94c0.61,0.61,0.94,1.42,0.94,2.29
		c0,0.87-0.33,1.68-0.94,2.29C264.11,152.49,261.97,152.49,260.75,151.28z M260.75,36.63c-0.61-0.61-0.94-1.42-0.94-2.29
		c0-0.87,0.33-1.68,0.94-2.29c0.61-0.61,1.42-0.94,2.29-0.94s1.68,0.33,2.29,0.94c0.61,0.61,0.95,1.42,0.95,2.29
		s-0.34,1.68-0.95,2.29C264.11,37.85,261.97,37.85,260.75,36.63z M265.32,212.21c0.61,0.61,0.94,1.42,0.94,2.29
		c0,0.87-0.33,1.68-0.94,2.29c-1.21,1.22-3.35,1.22-4.57,0c-1.26-1.26-1.26-3.31,0-4.57c0.61-0.61,1.42-0.94,2.29-0.94
		C263.9,211.27,264.72,211.6,265.32,212.21z M52.42,184.03c-1.22,1.22-3.36,1.22-4.57,0c-0.61-0.61-0.94-1.42-0.94-2.29
		s0.33-1.68,0.94-2.29c0.61-0.61,1.42-0.94,2.29-0.94c0.87,0,1.68,0.33,2.29,0.94C53.68,180.72,53.68,182.77,52.42,184.03z
		 M119.69,153.03c1.1-1.1,2.58-1.71,4.14-1.71c1.57,0,3.04,0.61,4.15,1.71c2.29,2.29,2.29,6,0,8.29c-1.1,1.1-2.57,1.71-4.15,1.71
		c-1.57,0-3.04-0.61-4.14-1.71C117.4,159.04,117.4,155.32,119.69,153.03z M70.56,202.16c1.1-1.1,2.57-1.71,4.14-1.71
		c1.57,0,3.04,0.61,4.14,1.71c1.1,1.1,1.71,2.57,1.71,4.15c0,1.57-0.61,3.04-1.71,4.14c-1.1,1.1-2.57,1.71-4.14,1.71
		c-1.57,0-3.04-0.61-4.14-1.71C68.27,208.17,68.27,204.45,70.56,202.16z M62.47,194.08c-1.1,1.1-2.58,1.71-4.15,1.71
		s-3.04-0.61-4.14-1.71c-1.1-1.1-1.71-2.57-1.71-4.14c0-1.57,0.61-3.04,1.71-4.14c1.1-1.1,2.57-1.71,4.14-1.71
		c1.57,0,3.04,0.61,4.15,1.71c1.1,1.1,1.71,2.58,1.71,4.14C64.18,191.5,63.57,192.97,62.47,194.08z M54.18,202.16
		c1.1-1.1,2.57-1.71,4.14-1.71s3.04,0.61,4.15,1.71c1.1,1.1,1.71,2.58,1.71,4.15c0,1.57-0.61,3.04-1.71,4.14
		c-1.1,1.1-2.58,1.71-4.15,1.71c-1.57,0-3.04-0.61-4.14-1.71s-1.71-2.57-1.71-4.14S53.08,203.27,54.18,202.16z M31.47,102.14
		c-1.26-1.26-1.26-3.31,0-4.57c0.61-0.61,1.42-0.94,2.29-0.94s1.68,0.33,2.29,0.94c0.61,0.61,0.94,1.42,0.94,2.29
		s-0.33,1.68-0.94,2.29C34.83,103.36,32.69,103.36,31.47,102.14z M101.55,36.64c-1.22,1.22-3.36,1.22-4.57,0
		c-0.61-0.61-0.95-1.42-0.95-2.29s0.34-1.68,0.95-2.29c0.61-0.61,1.42-0.94,2.29-0.94s1.68,0.33,2.29,0.94
		c0.61,0.61,0.94,1.42,0.94,2.29C102.5,35.21,102.16,36.03,101.55,36.64z M134.31,36.64c-1.22,1.22-3.36,1.22-4.57,0
		c-0.61-0.61-0.94-1.42-0.94-2.29c0-0.87,0.33-1.68,0.94-2.29c0.61-0.61,1.42-0.94,2.29-0.94s1.68,0.33,2.29,0.94
		c0.61,0.61,0.94,1.42,0.94,2.29C135.25,35.22,134.92,36.03,134.31,36.64z M41.95,81.15c-1.57,0-3.04-0.61-4.15-1.71
		c-1.11-1.11-1.71-2.58-1.71-4.15s0.61-3.04,1.71-4.15c1.1-1.1,2.58-1.71,4.15-1.71s3.04,0.61,4.14,1.71
		c1.11,1.11,1.71,2.58,1.71,4.15s-0.61,3.04-1.71,4.15C44.99,80.54,43.52,81.15,41.95,81.15z M46.09,63.06
		c-1.1,1.1-2.57,1.71-4.14,1.71c-1.57,0-3.04-0.61-4.15-1.71c-1.11-1.11-1.71-2.58-1.71-4.15s0.61-3.04,1.71-4.15
		c1.1-1.1,2.58-1.71,4.15-1.71s3.04,0.61,4.14,1.71c1.1,1.1,1.71,2.58,1.71,4.15S47.19,61.96,46.09,63.06z M68.8,69.39
		c-1.22,1.22-3.36,1.22-4.57,0c-0.61-0.61-0.94-1.42-0.94-2.29s0.33-1.68,0.94-2.29c0.61-0.61,1.42-0.94,2.29-0.94
		s1.68,0.34,2.29,0.94C70.06,66.08,70.06,68.13,68.8,69.39z M127.98,128.57c-1.1,1.1-2.57,1.71-4.15,1.71
		c-1.57,0-3.04-0.61-4.14-1.71c-2.29-2.29-2.29-6,0-8.29c1.1-1.1,2.57-1.71,4.14-1.71c1.57,0,3.04,0.61,4.15,1.71
		C130.26,122.56,130.26,126.28,127.98,128.57z M86.93,136.66c1.1-1.1,2.58-1.71,4.14-1.71c1.57,0,3.04,0.61,4.15,1.71
		c1.11,1.11,1.71,2.58,1.71,4.15s-0.61,3.04-1.71,4.15c-1.1,1.1-2.58,1.71-4.15,1.71s-3.04-0.61-4.14-1.71
		C84.65,142.66,84.65,138.94,86.93,136.66z M96.98,146.7c0.61-0.61,1.42-0.94,2.29-0.94s1.68,0.33,2.29,0.94s0.94,1.42,0.94,2.29
		c0,0.87-0.33,1.68-0.94,2.29c-1.22,1.22-3.36,1.22-4.57,0c-0.61-0.61-0.95-1.42-0.95-2.29C96.03,148.12,96.37,147.31,96.98,146.7z
		 M111.6,112.19c-1.1,1.1-2.58,1.71-4.14,1.71c-1.57,0-3.04-0.61-4.15-1.71c-1.11-1.11-1.71-2.58-1.71-4.14
		c0-1.57,0.61-3.04,1.71-4.15c1.1-1.1,2.58-1.71,4.15-1.71c1.57,0,3.04,0.61,4.14,1.71c1.1,1.1,1.71,2.57,1.71,4.15
		S112.7,111.09,111.6,112.19z M103.31,120.28c1.1-1.1,2.58-1.71,4.15-1.71s3.04,0.61,4.14,1.71c1.1,1.1,1.71,2.57,1.71,4.14
		c0,1.57-0.61,3.04-1.71,4.15s-2.58,1.71-4.14,1.71c-1.57,0-3.04-0.61-4.15-1.71C101.02,126.28,101.02,122.56,103.31,120.28z
		 M117.93,118.52c-1.22,1.22-3.35,1.22-4.57,0c-1.26-1.26-1.26-3.31,0-4.57c0.61-0.61,1.42-0.94,2.29-0.94s1.68,0.33,2.29,0.94
		c0.61,0.61,0.94,1.42,0.94,2.29C118.87,117.1,118.54,117.91,117.93,118.52z M123.83,113.9c-1.57,0-3.04-0.61-4.14-1.71
		c-2.29-2.29-2.29-6,0-8.29c1.1-1.1,2.58-1.71,4.14-1.71c1.57,0,3.04,0.61,4.15,1.71c2.29,2.29,2.29,6,0,8.29
		C126.87,113.29,125.4,113.9,123.83,113.9z M80.6,179.46c0.61-0.61,1.42-0.94,2.29-0.94c0.87,0,1.68,0.33,2.29,0.94
		c1.26,1.26,1.26,3.31,0,4.57c-1.22,1.22-3.36,1.22-4.57,0c-0.61-0.61-0.94-1.42-0.94-2.29S79.99,180.06,80.6,179.46z M70.56,153.03
		c1.1-1.1,2.58-1.71,4.14-1.71c1.57,0,3.04,0.61,4.14,1.71c1.1,1.1,1.71,2.57,1.71,4.15s-0.61,3.04-1.71,4.14
		c-1.1,1.1-2.57,1.71-4.14,1.71c-1.57,0-3.04-0.61-4.14-1.71C68.27,159.04,68.27,155.32,70.56,153.03z M74.7,134.95
		c1.57,0,3.04,0.61,4.14,1.71c1.1,1.1,1.71,2.57,1.71,4.15s-0.61,3.04-1.71,4.14c-1.1,1.1-2.57,1.71-4.14,1.71
		c-1.57,0-3.04-0.61-4.14-1.71c-2.29-2.29-2.29-6,0-8.29C71.66,135.55,73.13,134.95,74.7,134.95z M70.56,169.41
		c1.1-1.1,2.57-1.71,4.14-1.71c1.57,0,3.04,0.61,4.14,1.71c1.1,1.1,1.71,2.57,1.71,4.15c0,1.57-0.61,3.04-1.71,4.14
		c-1.1,1.1-2.57,1.71-4.14,1.71c-1.57,0-3.04-0.61-4.14-1.71C68.27,175.41,68.27,171.7,70.56,169.41z M127.98,95.81
		c-1.1,1.1-2.57,1.71-4.15,1.71c-1.57,0-3.04-0.61-4.14-1.71c-2.29-2.29-2.29-6,0-8.29c1.1-1.1,2.57-1.71,4.14-1.71
		c1.57,0,3.04,0.61,4.15,1.71C130.26,89.81,130.26,93.53,127.98,95.81z M111.6,95.81c-1.1,1.1-2.57,1.71-4.14,1.71
		s-3.04-0.61-4.15-1.71c-1.11-1.11-1.71-2.58-1.71-4.14s0.61-3.04,1.71-4.14c1.1-1.1,2.58-1.71,4.15-1.71s3.04,0.61,4.14,1.71
		c1.1,1.1,1.71,2.57,1.71,4.14S112.7,94.71,111.6,95.81z M101.55,53.01c-1.22,1.22-3.35,1.22-4.57,0c-0.61-0.61-0.95-1.42-0.95-2.29
		s0.34-1.68,0.95-2.29c0.61-0.61,1.42-0.94,2.29-0.94c0.87,0,1.68,0.33,2.29,0.94c0.61,0.61,0.94,1.42,0.94,2.29
		S102.16,52.4,101.55,53.01z M95.15,79.51c-2.19,2.19-2.19,5.75,0,7.94c2.33,2.33,2.33,6.11,0,8.44c-1.06,1.06-1.64,2.47-1.64,3.97
		c0,1.5,0.58,2.91,1.64,3.97c1.12,1.12,1.75,2.62,1.75,4.22c0,1.6-0.62,3.09-1.75,4.22c-2.19,2.19-2.19,5.75,0,7.94
		c2.33,2.33,2.36,6.08,0.08,8.36c-1.09,1.09-2.55,1.69-4.11,1.69c-1.6,0-3.11-0.63-4.25-1.76c-1.06-1.06-2.47-1.64-3.97-1.64
		c-1.5,0-2.91,0.58-3.97,1.64c-1.14,1.14-2.65,1.76-4.25,1.76c-1.56,0-3.03-0.6-4.11-1.69c-2.29-2.29-2.25-6.04,0.07-8.36
		c2.19-2.19,2.19-5.75,0-7.94c-1.12-1.12-1.75-2.62-1.75-4.22c0-1.6,0.62-3.09,1.75-4.22c1.06-1.06,1.64-2.47,1.64-3.97
		c0-1.5-0.58-2.91-1.64-3.97c-2.33-2.33-2.33-6.11,0-8.44c2.19-2.19,2.19-5.75,0-7.94c-2.33-2.33-2.36-6.08-0.07-8.36
		c1.09-1.09,2.55-1.69,4.11-1.69c1.6,0,3.11,0.63,4.25,1.76c1.06,1.06,2.47,1.64,3.97,1.64s2.91-0.58,3.97-1.64
		c1.14-1.14,2.65-1.76,4.25-1.76c1.56,0,3.02,0.6,4.11,1.69C97.51,73.43,97.47,77.18,95.15,79.51z M64.18,91.67
		c0,1.57-0.61,3.04-1.71,4.14c-1.1,1.1-2.58,1.71-4.15,1.71c-1.57,0-3.04-0.61-4.14-1.71c-1.1-1.1-1.71-2.57-1.71-4.14
		s0.61-3.04,1.71-4.14c1.1-1.1,2.57-1.71,4.14-1.71s3.04,0.61,4.15,1.71C63.57,88.63,64.18,90.1,64.18,91.67z M58.32,113.9
		c-1.57,0-3.04-0.61-4.14-1.71s-1.71-2.57-1.71-4.14s0.61-3.04,1.71-4.15s2.57-1.71,4.14-1.71s3.04,0.61,4.15,1.71
		c1.1,1.1,1.71,2.58,1.71,4.15c0,1.57-0.61,3.04-1.71,4.14C61.37,113.29,59.89,113.9,58.32,113.9z M64.23,97.57
		c0.61-0.61,1.42-0.94,2.29-0.94s1.68,0.33,2.29,0.94c1.26,1.26,1.26,3.31,0,4.57c-1.22,1.22-3.36,1.22-4.57,0
		c-0.61-0.61-0.94-1.42-0.94-2.29S63.62,98.18,64.23,97.57z M70.56,185.79c1.1-1.1,2.57-1.71,4.14-1.71c1.57,0,3.04,0.61,4.14,1.71
		c1.1,1.1,1.71,2.57,1.71,4.14c0,1.57-0.61,3.04-1.71,4.14c-1.1,1.1-2.57,1.71-4.14,1.71c-1.57,0-3.04-0.61-4.14-1.71
		c-1.11-1.11-1.71-2.58-1.71-4.14S69.45,186.89,70.56,185.79z M86.93,153.03c1.1-1.1,2.58-1.71,4.14-1.71
		c1.57,0,3.04,0.61,4.15,1.71c2.29,2.29,2.29,6,0,8.29c-1.1,1.1-2.58,1.71-4.15,1.71s-3.04-0.61-4.14-1.71
		C84.65,159.04,84.65,155.32,86.93,153.03z M103.31,153.03c1.1-1.1,2.58-1.71,4.15-1.71c1.57,0,3.04,0.61,4.14,1.71
		c1.1,1.1,1.71,2.58,1.71,4.15c0,1.57-0.61,3.04-1.71,4.14c-1.1,1.1-2.57,1.71-4.14,1.71s-3.04-0.61-4.15-1.71
		C101.02,159.04,101.02,155.32,103.31,153.03z M111.6,144.95c-1.1,1.1-2.57,1.71-4.14,1.71s-3.04-0.61-4.15-1.71
		c-2.29-2.29-2.29-6,0-8.29c1.1-1.1,2.58-1.71,4.15-1.71c1.57,0,3.04,0.61,4.14,1.71c1.1,1.1,1.71,2.58,1.71,4.15
		S112.7,143.84,111.6,144.95z M113.36,130.33c0.61-0.61,1.42-0.94,2.29-0.94s1.68,0.33,2.29,0.94c1.26,1.26,1.26,3.31,0,4.57
		c-1.22,1.22-3.36,1.22-4.57,0c-0.61-0.61-0.94-1.42-0.94-2.29C112.41,131.75,112.75,130.93,113.36,130.33z M136.06,103.9
		c1.1-1.1,2.57-1.71,4.14-1.71s3.04,0.61,4.15,1.71c2.29,2.29,2.29,6,0,8.29c-1.1,1.1-2.58,1.71-4.15,1.71s-3.04-0.61-4.14-1.71
		c-1.11-1.11-1.71-2.58-1.71-4.14C134.35,106.48,134.96,105.01,136.06,103.9z M140.21,97.52c-1.57,0-3.04-0.61-4.14-1.71
		c-1.11-1.11-1.71-2.58-1.71-4.14s0.61-3.04,1.71-4.14c1.1-1.1,2.57-1.71,4.14-1.71s3.04,0.61,4.15,1.71
		c1.11,1.11,1.71,2.58,1.71,4.14s-0.61,3.04-1.71,4.14C143.25,96.92,141.78,97.52,140.21,97.52z M144.35,63.06
		c-1.1,1.1-2.58,1.71-4.15,1.71s-3.04-0.61-4.14-1.71c-1.1-1.1-1.71-2.57-1.71-4.14s0.61-3.04,1.71-4.15
		c1.1-1.1,2.57-1.71,4.14-1.71s3.04,0.61,4.15,1.71c1.1,1.1,1.71,2.58,1.71,4.15S145.46,61.96,144.35,63.06z M134.31,53.01
		c-1.22,1.22-3.36,1.22-4.57,0c-0.61-0.61-0.94-1.42-0.94-2.29s0.33-1.68,0.94-2.29c0.61-0.61,1.42-0.94,2.29-0.94
		s1.68,0.33,2.29,0.94c0.61,0.61,0.94,1.42,0.94,2.29S134.92,52.4,134.31,53.01z M144.35,128.57c-1.1,1.1-2.58,1.71-4.15,1.71
		s-3.04-0.61-4.14-1.71c-1.11-1.11-1.71-2.58-1.71-4.15c0-1.57,0.61-3.04,1.71-4.15c1.1-1.1,2.57-1.71,4.14-1.71
		s3.04,0.61,4.15,1.71C146.64,122.56,146.64,126.28,144.35,128.57z M144.35,79.44c-1.1,1.1-2.58,1.71-4.15,1.71
		s-3.04-0.61-4.14-1.71c-1.11-1.11-1.71-2.58-1.71-4.15s0.61-3.04,1.71-4.15c1.1-1.1,2.57-1.71,4.14-1.71s3.04,0.61,4.15,1.71
		C146.64,73.43,146.64,77.15,144.35,79.44z M119.69,54.77c1.1-1.1,2.58-1.71,4.14-1.71c1.57,0,3.04,0.61,4.15,1.71
		c2.29,2.29,2.29,6,0,8.29c-1.1,1.1-2.57,1.71-4.15,1.71c-1.57,0-3.04-0.61-4.14-1.71c-1.1-1.1-1.71-2.58-1.71-4.14
		C117.98,57.35,118.58,55.87,119.69,54.77z M107.46,81.15c-1.57,0-3.04-0.61-4.15-1.71c-2.29-2.29-2.29-6,0-8.29
		c1.1-1.1,2.58-1.71,4.15-1.71c1.57,0,3.04,0.61,4.14,1.71c1.1,1.1,1.71,2.57,1.71,4.14c0,1.57-0.61,3.04-1.71,4.15
		C110.5,80.54,109.02,81.15,107.46,81.15z M107.46,64.77c-1.57,0-3.04-0.61-4.15-1.71c-1.11-1.11-1.71-2.58-1.71-4.15
		s0.61-3.04,1.71-4.15c1.1-1.1,2.58-1.71,4.15-1.71c1.57,0,3.04,0.61,4.14,1.71s1.71,2.57,1.71,4.15c0,1.57-0.61,3.04-1.71,4.14
		C110.5,64.16,109.03,64.77,107.46,64.77z M86.93,54.77c1.1-1.1,2.58-1.71,4.14-1.71c1.57,0,3.04,0.61,4.15,1.71
		c1.1,1.1,1.71,2.58,1.71,4.15s-0.61,3.04-1.71,4.14c-1.1,1.1-2.58,1.71-4.15,1.71s-3.04-0.61-4.14-1.71
		c-1.1-1.1-1.71-2.58-1.71-4.14C85.22,57.35,85.83,55.87,86.93,54.77z M74.7,64.77c-1.57,0-3.04-0.61-4.14-1.71
		c-1.1-1.1-1.71-2.57-1.71-4.14c0-1.57,0.61-3.04,1.71-4.15s2.58-1.71,4.14-1.71c1.57,0,3.04,0.61,4.14,1.71
		c1.1,1.1,1.71,2.57,1.71,4.15s-0.61,3.04-1.71,4.14C77.74,64.16,76.27,64.77,74.7,64.77z M58.32,53.06c1.57,0,3.04,0.61,4.15,1.71
		c1.1,1.1,1.71,2.58,1.71,4.15s-0.61,3.04-1.71,4.14c-1.1,1.1-2.58,1.71-4.15,1.71s-3.04-0.61-4.14-1.71
		c-1.1-1.1-1.71-2.57-1.71-4.14s0.61-3.04,1.71-4.15C55.28,53.67,56.75,53.06,58.32,53.06z M46.09,95.81
		c-1.1,1.1-2.57,1.71-4.14,1.71c-1.57,0-3.04-0.61-4.15-1.71c-1.11-1.11-1.71-2.58-1.71-4.14s0.61-3.04,1.71-4.14
		c1.1-1.1,2.58-1.71,4.15-1.71c1.57,0,3.04,0.61,4.14,1.71c1.1,1.1,1.71,2.57,1.71,4.14S47.19,94.71,46.09,95.81z M95.22,194.08
		c-1.1,1.1-2.58,1.71-4.15,1.71s-3.04-0.61-4.14-1.71c-1.11-1.11-1.71-2.58-1.71-4.14s0.61-3.04,1.71-4.14
		c1.1-1.1,2.57-1.71,4.14-1.71s3.04,0.61,4.15,1.71c1.11,1.11,1.71,2.58,1.71,4.14S96.33,192.97,95.22,194.08z M107.46,167.7
		c1.57,0,3.04,0.61,4.14,1.71c1.1,1.1,1.71,2.57,1.71,4.15c0,1.57-0.61,3.04-1.71,4.14c-1.1,1.1-2.58,1.71-4.14,1.71
		s-3.04-0.61-4.15-1.71c-1.11-1.11-1.71-2.58-1.71-4.14c0-1.57,0.61-3.04,1.71-4.15C104.41,168.31,105.89,167.7,107.46,167.7z
		 M107.46,184.08c1.57,0,3.04,0.61,4.14,1.71s1.71,2.57,1.71,4.14c0,1.57-0.61,3.04-1.71,4.14c-1.1,1.1-2.57,1.71-4.14,1.71
		s-3.04-0.61-4.15-1.71c-1.11-1.11-1.71-2.58-1.71-4.14s0.61-3.04,1.71-4.14C104.41,184.68,105.89,184.08,107.46,184.08z
		 M119.69,136.66c1.1-1.1,2.58-1.71,4.14-1.71c1.57,0,3.04,0.61,4.15,1.71c1.11,1.11,1.71,2.58,1.71,4.15s-0.61,3.04-1.71,4.15
		c-1.1,1.1-2.57,1.71-4.15,1.71c-1.57,0-3.04-0.61-4.14-1.71c-1.11-1.11-1.71-2.58-1.71-4.15S118.58,137.76,119.69,136.66z
		 M140.21,146.66c-1.57,0-3.04-0.61-4.14-1.71c-1.11-1.11-1.71-2.58-1.71-4.15s0.61-3.04,1.71-4.15c1.1-1.1,2.57-1.71,4.14-1.71
		s3.04,0.61,4.15,1.71c1.11,1.11,1.71,2.58,1.71,4.15s-0.61,3.04-1.71,4.15C143.25,146.05,141.78,146.66,140.21,146.66z
		 M144.35,46.68c-1.1,1.1-2.58,1.71-4.15,1.71s-3.04-0.61-4.14-1.71c-1.11-1.11-1.71-2.58-1.71-4.15s0.61-3.04,1.71-4.15
		c1.1-1.1,2.57-1.71,4.14-1.71c1.57,0,3.04,0.61,4.15,1.71C146.64,40.68,146.64,44.4,144.35,46.68z M127.98,46.68
		c-1.1,1.1-2.57,1.71-4.15,1.71c-1.57,0-3.04-0.61-4.14-1.71c-2.29-2.29-2.29-6,0-8.29c1.1-1.1,2.57-1.71,4.14-1.71
		c1.57,0,3.04,0.61,4.15,1.71C130.26,40.68,130.26,44.4,127.98,46.68z M119.69,71.15c1.1-1.1,2.58-1.71,4.14-1.71
		c1.57,0,3.04,0.61,4.15,1.71c2.29,2.29,2.29,6,0,8.29c-1.1,1.1-2.57,1.71-4.15,1.71c-1.57,0-3.04-0.61-4.14-1.71
		C117.4,77.15,117.4,73.43,119.69,71.15z M117.93,85.77c-1.22,1.22-3.36,1.22-4.57,0c-1.26-1.26-1.26-3.31,0-4.57
		c0.61-0.61,1.42-0.94,2.29-0.94s1.68,0.33,2.29,0.94c0.61,0.61,0.94,1.42,0.94,2.29C118.87,84.35,118.54,85.16,117.93,85.77z
		 M111.6,46.68c-1.1,1.1-2.58,1.71-4.14,1.71c-1.57,0-3.04-0.61-4.15-1.71c-1.11-1.11-1.71-2.58-1.71-4.15s0.61-3.04,1.71-4.15
		c1.1-1.1,2.58-1.71,4.15-1.71s3.04,0.61,4.14,1.71s1.71,2.57,1.71,4.14S112.7,45.58,111.6,46.68z M95.22,46.68
		c-1.1,1.1-2.58,1.71-4.15,1.71c-1.57,0-3.04-0.61-4.14-1.71c-1.11-1.11-1.71-2.58-1.71-4.15s0.61-3.04,1.71-4.15
		c1.1-1.1,2.57-1.71,4.14-1.71s3.04,0.61,4.15,1.71c1.11,1.11,1.71,2.58,1.71,4.15S96.33,45.58,95.22,46.68z M85.18,69.39
		c-1.21,1.22-3.36,1.22-4.57,0c-0.61-0.61-0.94-1.42-0.94-2.29c0-0.87,0.33-1.68,0.94-2.29c0.61-0.61,1.42-0.94,2.29-0.94
		s1.68,0.33,2.29,0.94c0.61,0.61,0.94,1.42,0.94,2.29S85.78,68.78,85.18,69.39z M78.85,46.68c-1.1,1.1-2.57,1.71-4.14,1.71
		c-1.57,0-3.04-0.61-4.14-1.71c-2.29-2.29-2.29-6,0-8.29c1.1-1.1,2.57-1.71,4.14-1.71c1.57,0,3.04,0.61,4.14,1.71
		c1.1,1.1,1.71,2.57,1.71,4.14S79.95,45.58,78.85,46.68z M68.8,53.01c-1.22,1.22-3.36,1.22-4.57,0c-0.61-0.61-0.94-1.42-0.94-2.29
		c0-0.87,0.33-1.68,0.94-2.29c0.61-0.61,1.42-0.94,2.29-0.94s1.68,0.33,2.29,0.94C70.06,49.7,70.06,51.75,68.8,53.01z M62.47,46.68
		c-1.1,1.1-2.58,1.71-4.15,1.71s-3.04-0.61-4.14-1.71c-1.1-1.1-1.71-2.58-1.71-4.15s0.61-3.04,1.71-4.14
		c1.1-1.1,2.57-1.71,4.14-1.71c1.57,0,3.04,0.61,4.15,1.71c1.1,1.1,1.71,2.57,1.71,4.14S63.57,45.58,62.47,46.68z M54.18,71.15
		c1.1-1.1,2.57-1.71,4.14-1.71s3.04,0.61,4.15,1.71c1.1,1.1,1.71,2.57,1.71,4.14c0,1.57-0.61,3.04-1.71,4.15
		c-1.1,1.1-2.58,1.71-4.15,1.71s-3.04-0.61-4.14-1.71s-1.71-2.57-1.71-4.15C52.47,73.72,53.08,72.25,54.18,71.15z M52.42,85.77
		c-1.22,1.22-3.36,1.22-4.57,0c-0.61-0.61-0.94-1.42-0.94-2.29c0-0.87,0.33-1.68,0.94-2.29c0.61-0.61,1.42-0.94,2.29-0.94
		s1.68,0.33,2.29,0.94c0.61,0.61,0.95,1.42,0.95,2.29S53.03,85.16,52.42,85.77z M46.09,46.68c-1.1,1.1-2.57,1.71-4.14,1.71
		s-3.04-0.61-4.15-1.71c-1.11-1.11-1.71-2.58-1.71-4.15s0.61-3.04,1.71-4.15c1.1-1.1,2.58-1.71,4.15-1.71
		c1.57,0,3.04,0.61,4.14,1.71C48.38,40.68,48.38,44.4,46.09,46.68z M33.76,47.5c0.87,0,1.68,0.33,2.29,0.94
		c0.61,0.61,0.94,1.42,0.94,2.29c0,0.87-0.33,1.68-0.94,2.29c-1.22,1.22-3.35,1.22-4.57,0c-0.61-0.61-0.94-1.42-0.94-2.29
		s0.33-1.68,0.94-2.29C32.08,47.83,32.89,47.5,33.76,47.5z M37.8,103.9c1.1-1.1,2.58-1.71,4.15-1.71s3.04,0.61,4.14,1.71
		c1.11,1.11,1.71,2.58,1.71,4.15c0,1.57-0.61,3.04-1.71,4.14c-1.1,1.1-2.57,1.71-4.14,1.71s-3.04-0.61-4.15-1.71
		c-1.11-1.11-1.71-2.58-1.71-4.14C36.09,106.48,36.7,105.01,37.8,103.9z M47.85,113.95c0.61-0.61,1.42-0.94,2.29-0.94
		s1.68,0.33,2.29,0.94c0.61,0.61,0.95,1.42,0.95,2.29s-0.34,1.68-0.95,2.29c-1.22,1.22-3.36,1.22-4.57,0
		c-0.61-0.61-0.94-1.42-0.94-2.29C46.9,115.37,47.24,114.56,47.85,113.95z M54.18,120.28c1.1-1.1,2.57-1.71,4.14-1.71
		s3.04,0.61,4.15,1.71c1.1,1.1,1.71,2.57,1.71,4.14s-0.61,3.04-1.71,4.15c-1.1,1.1-2.58,1.71-4.15,1.71s-3.04-0.61-4.14-1.71
		c-1.1-1.1-1.71-2.58-1.71-4.15S53.08,121.38,54.18,120.28z M66.51,178.51c0.87,0,1.68,0.33,2.29,0.94c1.26,1.26,1.26,3.31,0,4.57
		c-1.22,1.22-3.36,1.22-4.57,0c-0.61-0.61-0.94-1.42-0.94-2.29s0.33-1.68,0.94-2.29C64.83,178.85,65.65,178.51,66.51,178.51z
		 M64.23,195.83c0.61-0.61,1.42-0.94,2.29-0.94s1.68,0.33,2.29,0.94c1.26,1.26,1.26,3.31,0,4.57c-1.22,1.22-3.36,1.22-4.57,0
		c-0.61-0.61-0.95-1.42-0.95-2.29C63.28,197.26,63.62,196.44,64.23,195.83z M80.6,195.83c0.61-0.61,1.42-0.94,2.29-0.94
		c0.87,0,1.68,0.33,2.29,0.94c1.26,1.26,1.26,3.31,0,4.57c-1.22,1.22-3.36,1.22-4.57,0c-0.61-0.61-0.95-1.42-0.95-2.29
		C79.66,197.26,79.99,196.44,80.6,195.83z M86.93,202.16c1.1-1.1,2.57-1.71,4.14-1.71s3.04,0.61,4.15,1.71c2.29,2.29,2.29,6,0,8.29
		c-1.1,1.1-2.58,1.71-4.15,1.71s-3.04-0.61-4.14-1.71c-1.1-1.1-1.71-2.58-1.71-4.14S85.83,203.27,86.93,202.16z M95.22,177.7
		c-1.1,1.1-2.58,1.71-4.15,1.71s-3.04-0.61-4.14-1.71c-2.29-2.29-2.29-6,0-8.29c1.1-1.1,2.57-1.71,4.14-1.71s3.04,0.61,4.15,1.71
		C97.51,171.7,97.51,175.41,95.22,177.7z M96.98,163.08c0.61-0.61,1.42-0.94,2.29-0.94c0.87,0,1.68,0.33,2.29,0.94
		c0.61,0.61,0.94,1.42,0.94,2.29c0,0.87-0.33,1.68-0.94,2.29c-1.22,1.22-3.36,1.22-4.57,0c-0.61-0.61-0.95-1.42-0.95-2.29
		C96.03,164.5,96.37,163.69,96.98,163.08z M103.31,202.16c1.1-1.1,2.58-1.71,4.15-1.71s3.04,0.61,4.14,1.71s1.71,2.58,1.71,4.15
		s-0.61,3.04-1.71,4.14c-1.1,1.1-2.58,1.71-4.14,1.71s-3.04-0.61-4.15-1.71c-1.11-1.11-1.71-2.58-1.71-4.14
		C101.6,204.74,102.2,203.27,103.31,202.16z M113.36,200.41c-1.26-1.26-1.26-3.31,0-4.57c0.61-0.61,1.42-0.94,2.29-0.94
		s1.68,0.33,2.29,0.94c0.61,0.61,0.95,1.42,0.95,2.29c0,0.87-0.34,1.68-0.95,2.29C116.72,201.62,114.57,201.62,113.36,200.41z
		 M129.73,146.7c0.61-0.61,1.42-0.94,2.29-0.94s1.68,0.33,2.29,0.94c0.61,0.61,0.94,1.42,0.94,2.29c0,0.87-0.33,1.68-0.94,2.29
		c-1.21,1.22-3.36,1.22-4.57,0c-0.61-0.61-0.94-1.42-0.94-2.29C128.79,148.12,129.13,147.31,129.73,146.7z M136.06,153.03
		c1.1-1.1,2.57-1.71,4.14-1.71s3.04,0.61,4.15,1.71c2.29,2.29,2.29,6,0,8.29c-1.1,1.1-2.58,1.71-4.15,1.71s-3.04-0.61-4.14-1.71
		c-1.11-1.11-1.71-2.58-1.71-4.14S134.96,154.14,136.06,153.03z M151.63,116.23c0,0.87-0.33,1.68-0.94,2.29
		c-1.22,1.22-3.35,1.22-4.57,0c-1.26-1.26-1.26-3.31,0-4.57c0.61-0.61,1.42-0.94,2.29-0.94c0.87,0,1.68,0.33,2.29,0.94
		C151.29,114.56,151.63,115.37,151.63,116.23z M31.47,36.64c-1.26-1.26-1.26-3.31,0-4.57c0.61-0.61,1.42-0.94,2.29-0.94
		s1.68,0.33,2.29,0.94c0.61,0.61,0.94,1.42,0.94,2.29c0,0.87-0.33,1.68-0.94,2.29C34.83,37.85,32.69,37.85,31.47,36.64z
		 M37.8,120.28c1.1-1.1,2.58-1.71,4.15-1.71c1.57,0,3.04,0.61,4.14,1.71c2.29,2.29,2.29,6,0,8.29c-1.1,1.1-2.57,1.71-4.14,1.71
		s-3.04-0.61-4.15-1.71C35.52,126.28,35.52,122.56,37.8,120.28z M113.36,212.21c0.61-0.61,1.42-0.94,2.29-0.94s1.68,0.33,2.29,0.94
		c0.61,0.61,0.94,1.42,0.94,2.29c0,0.87-0.33,1.68-0.94,2.29c-1.22,1.22-3.35,1.22-4.57,0C112.1,215.52,112.1,213.47,113.36,212.21z
		 M162.49,195.83c0.61-0.61,1.42-0.94,2.29-0.94c0.87,0,1.68,0.33,2.29,0.94c1.26,1.26,1.26,3.31,0,4.57
		c-1.22,1.22-3.36,1.22-4.57,0c-0.61-0.61-0.94-1.42-0.94-2.29S161.88,196.44,162.49,195.83z M160.73,46.68
		c-1.1,1.1-2.58,1.71-4.15,1.71s-3.04-0.61-4.14-1.71s-1.71-2.58-1.71-4.15s0.61-3.04,1.71-4.14s2.57-1.71,4.14-1.71
		c1.57,0,3.04,0.61,4.15,1.71C163.02,40.68,163.02,44.4,160.73,46.68z M183.44,36.64c-1.22,1.22-3.36,1.22-4.57,0
		c-0.61-0.61-0.95-1.42-0.95-2.29s0.34-1.68,0.95-2.29c0.61-0.61,1.42-0.94,2.29-0.94s1.68,0.33,2.29,0.94
		c0.61,0.61,0.95,1.42,0.95,2.29S184.05,36.03,183.44,36.64z M183.44,53.01c-1.22,1.22-3.36,1.22-4.57,0
		c-0.61-0.61-0.94-1.42-0.94-2.29s0.33-1.68,0.94-2.29c0.61-0.61,1.42-0.94,2.29-0.94c0.87,0,1.68,0.33,2.29,0.94
		c0.61,0.61,0.95,1.42,0.95,2.29S184.05,52.4,183.44,53.01z M168.82,71.15c1.1-1.1,2.58-1.71,4.14-1.71c1.57,0,3.04,0.61,4.15,1.71
		c2.29,2.29,2.29,6,0,8.29c-1.1,1.1-2.58,1.71-4.15,1.71c-1.57,0-3.04-0.61-4.14-1.71C166.53,77.15,166.53,73.43,168.82,71.15z
		 M168.82,87.52c1.1-1.1,2.57-1.71,4.14-1.71s3.04,0.61,4.15,1.71c2.29,2.29,2.29,6,0,8.29c-1.1,1.1-2.58,1.71-4.15,1.71
		s-3.04-0.61-4.14-1.71C166.53,93.53,166.53,89.81,168.82,87.52z M177.11,128.57c-1.1,1.1-2.58,1.71-4.15,1.71
		c-1.57,0-3.04-0.61-4.14-1.71c-2.29-2.29-2.29-6,0-8.29c1.1-1.1,2.57-1.71,4.14-1.71s3.04,0.61,4.15,1.71
		C179.39,122.56,179.39,126.28,177.11,128.57z M172.96,113.9c-1.57,0-3.04-0.61-4.14-1.71c-2.29-2.29-2.29-6,0-8.29
		c1.1-1.1,2.58-1.71,4.14-1.71c1.57,0,3.04,0.61,4.15,1.71c2.29,2.29,2.29,6,0,8.29C176.01,113.29,174.53,113.9,172.96,113.9z
		 M168.82,136.66c1.1-1.1,2.58-1.71,4.14-1.71c1.57,0,3.04,0.61,4.15,1.71c2.29,2.29,2.29,6,0,8.29c-1.1,1.1-2.58,1.71-4.15,1.71
		s-3.04-0.61-4.14-1.71C166.53,142.66,166.53,138.94,168.82,136.66z M162.49,64.82c0.61-0.61,1.42-0.94,2.29-0.94
		c0.87,0,1.68,0.34,2.29,0.94c0.61,0.61,0.94,1.42,0.94,2.29c0,0.87-0.33,1.68-0.94,2.29c-1.22,1.22-3.36,1.22-4.57,0
		c-0.61-0.61-0.94-1.42-0.94-2.29C161.55,66.24,161.88,65.42,162.49,64.82z M162.49,81.19c0.61-0.61,1.42-0.94,2.29-0.94
		c0.87,0,1.68,0.33,2.29,0.94c1.26,1.26,1.26,3.31,0,4.57c-1.22,1.22-3.36,1.22-4.57,0c-0.61-0.61-0.94-1.42-0.94-2.29
		C161.55,82.61,161.88,81.8,162.49,81.19z M162.49,97.57c0.61-0.61,1.42-0.94,2.29-0.94c0.87,0,1.68,0.33,2.29,0.94
		c1.26,1.26,1.26,3.31,0,4.57c-1.22,1.22-3.36,1.22-4.57,0c-0.61-0.61-0.94-1.42-0.94-2.29C161.55,98.99,161.88,98.18,162.49,97.57z
		 M183.44,151.28c-1.22,1.22-3.36,1.22-4.57,0c-0.61-0.61-0.94-1.42-0.94-2.29c0-0.87,0.33-1.68,0.94-2.29
		c0.61-0.61,1.42-0.94,2.29-0.94s1.68,0.33,2.29,0.94c0.61,0.61,0.95,1.42,0.95,2.29C184.38,149.85,184.05,150.67,183.44,151.28z
		 M178.82,58.91c0,1.57-0.61,3.04-1.71,4.15c-1.1,1.1-2.58,1.71-4.15,1.71s-3.04-0.61-4.14-1.71c-2.29-2.29-2.29-6,0-8.29
		c1.1-1.1,2.58-1.71,4.14-1.71c1.57,0,3.04,0.61,4.15,1.71C178.21,55.87,178.82,57.35,178.82,58.91z M162.49,151.28
		c-0.61-0.61-0.94-1.42-0.94-2.29c0-0.87,0.33-1.68,0.94-2.29c0.61-0.61,1.42-0.94,2.29-0.94c0.87,0,1.68,0.33,2.29,0.94
		c0.61,0.61,0.94,1.42,0.94,2.29c0,0.87-0.33,1.68-0.94,2.29C165.84,152.49,163.7,152.49,162.49,151.28z M168.82,153.03
		c1.1-1.1,2.58-1.71,4.14-1.71c1.57,0,3.04,0.61,4.15,1.71c2.29,2.29,2.29,6,0,8.29c-1.1,1.1-2.58,1.71-4.15,1.71
		s-3.04-0.61-4.14-1.71C166.53,159.04,166.53,155.32,168.82,153.03z M162.44,140.8c0,1.57-0.61,3.04-1.71,4.14
		c-1.1,1.1-2.57,1.71-4.14,1.71s-3.04-0.61-4.14-1.71s-1.71-2.57-1.71-4.14s0.61-3.04,1.71-4.15c1.1-1.1,2.58-1.71,4.14-1.71
		s3.04,0.61,4.14,1.71S162.44,139.23,162.44,140.8z M156.59,151.32c1.57,0,3.04,0.61,4.14,1.71c1.1,1.1,1.71,2.58,1.71,4.15
		c0,1.57-0.61,3.04-1.71,4.14c-1.1,1.1-2.57,1.71-4.14,1.71s-3.04-0.61-4.14-1.71c-1.1-1.1-1.71-2.57-1.71-4.14
		c0-1.57,0.61-3.04,1.71-4.15C153.54,151.93,155.02,151.32,156.59,151.32z M156.59,167.7c1.57,0,3.04,0.61,4.14,1.71
		c1.1,1.1,1.71,2.57,1.71,4.14c0,1.57-0.61,3.04-1.71,4.15c-1.1,1.1-2.58,1.71-4.15,1.71c-1.57,0-3.04-0.61-4.14-1.71
		c-1.1-1.1-1.71-2.57-1.71-4.14c0-1.57,0.61-3.04,1.71-4.15C153.54,168.31,155.02,167.7,156.59,167.7z M156.59,184.08
		c1.57,0,3.04,0.61,4.15,1.71c1.11,1.11,1.71,2.58,1.71,4.14s-0.61,3.04-1.71,4.14c-1.1,1.1-2.58,1.71-4.15,1.71
		c-1.57,0-3.04-0.61-4.14-1.71c-1.1-1.1-1.71-2.57-1.71-4.14c0-1.57,0.61-3.04,1.71-4.14S155.02,184.08,156.59,184.08z
		 M193.49,161.32c-1.1,1.1-2.57,1.71-4.14,1.71s-3.04-0.61-4.15-1.71c-1.1-1.1-1.71-2.57-1.71-4.14c0-1.57,0.61-3.04,1.71-4.15
		c1.1-1.1,2.58-1.71,4.15-1.71c1.57,0,3.04,0.61,4.14,1.71C195.77,155.32,195.77,159.04,193.49,161.32z M193.49,128.57
		c-1.1,1.1-2.58,1.71-4.14,1.71c-1.57,0-3.04-0.61-4.14-1.71c-1.1-1.1-1.71-2.57-1.71-4.15s0.61-3.04,1.71-4.14
		c1.1-1.1,2.57-1.71,4.14-1.71c1.57,0,3.04,0.61,4.14,1.71C195.77,122.56,195.77,126.28,193.49,128.57z M177.11,46.68
		c-1.1,1.1-2.58,1.71-4.15,1.71c-1.57,0-3.04-0.61-4.14-1.71c-2.29-2.29-2.29-6,0-8.29c1.1-1.1,2.57-1.71,4.14-1.71
		s3.04,0.61,4.15,1.71C179.39,40.68,179.39,44.4,177.11,46.68z M167.06,53.01c-1.22,1.22-3.36,1.22-4.57,0
		c-0.61-0.61-0.94-1.42-0.94-2.29s0.33-1.68,0.94-2.29c0.61-0.61,1.42-0.94,2.29-0.94c0.87,0,1.68,0.33,2.29,0.94
		c0.61,0.61,0.94,1.42,0.94,2.29S167.67,52.4,167.06,53.01z M156.59,53.06c1.57,0,3.04,0.61,4.15,1.71c1.1,1.1,1.71,2.58,1.71,4.15
		s-0.61,3.04-1.71,4.14c-1.1,1.1-2.58,1.71-4.15,1.71c-1.57,0-3.04-0.61-4.14-1.71c-1.1-1.1-1.71-2.57-1.71-4.14
		s0.61-3.04,1.71-4.15S155.02,53.06,156.59,53.06z M156.59,69.44c1.57,0,3.04,0.61,4.15,1.71c1.11,1.11,1.71,2.58,1.71,4.15
		s-0.61,3.04-1.71,4.14c-1.1,1.1-2.58,1.71-4.15,1.71s-3.04-0.61-4.14-1.71c-1.1-1.1-1.71-2.57-1.71-4.15
		c0-1.57,0.61-3.04,1.71-4.14C153.55,70.04,155.02,69.44,156.59,69.44z M156.59,85.81c1.57,0,3.04,0.61,4.15,1.71
		c2.29,2.29,2.29,6,0,8.29c-1.1,1.1-2.58,1.71-4.15,1.71c-1.57,0-3.04-0.61-4.14-1.71c-1.1-1.1-1.71-2.57-1.71-4.14
		s0.61-3.04,1.71-4.14S155.02,85.81,156.59,85.81z M156.59,102.19c1.57,0,3.04,0.61,4.15,1.71c2.29,2.29,2.29,6,0,8.29
		c-1.1,1.1-2.58,1.71-4.15,1.71s-3.04-0.61-4.14-1.71c-1.1-1.1-1.71-2.57-1.71-4.14s0.61-3.04,1.71-4.15
		C153.55,102.8,155.02,102.19,156.59,102.19z M152.44,120.28c1.1-1.1,2.57-1.71,4.14-1.71c1.57,0,3.04,0.61,4.15,1.71
		c1.1,1.1,1.71,2.57,1.71,4.15c0,1.57-0.61,3.04-1.71,4.15c-1.1,1.1-2.58,1.71-4.14,1.71s-3.04-0.61-4.14-1.71
		c-1.11-1.1-1.71-2.58-1.71-4.15C150.73,122.86,151.34,121.38,152.44,120.28z M152.44,202.16c1.1-1.1,2.57-1.71,4.14-1.71
		c1.57,0,3.04,0.61,4.15,1.71c2.29,2.29,2.29,6,0,8.29c-1.1,1.1-2.58,1.71-4.15,1.71c-1.57,0-3.04-0.61-4.14-1.71
		c-1.1-1.1-1.71-2.57-1.71-4.14S151.34,203.27,152.44,202.16z M162.49,184.03c-0.61-0.61-0.94-1.42-0.94-2.29s0.33-1.68,0.94-2.29
		c0.61-0.61,1.42-0.94,2.29-0.94c0.87,0,1.68,0.33,2.29,0.94c1.26,1.26,1.26,3.31,0,4.57C165.84,185.25,163.7,185.25,162.49,184.03z
		 M168.82,169.41c1.1-1.1,2.57-1.71,4.14-1.71s3.04,0.61,4.15,1.71c2.29,2.29,2.29,6,0,8.29c-1.1,1.1-2.58,1.71-4.15,1.71
		s-3.04-0.61-4.14-1.71C166.53,175.41,166.53,171.7,168.82,169.41z M178.87,163.08c0.61-0.61,1.42-0.94,2.29-0.94
		c0.87,0,1.68,0.33,2.29,0.94s0.95,1.42,0.95,2.29c0,0.86-0.34,1.68-0.95,2.29c-1.22,1.22-3.36,1.22-4.57,0
		c-0.61-0.61-0.95-1.42-0.95-2.29C177.92,164.5,178.26,163.69,178.87,163.08z M185.2,169.41c1.1-1.1,2.57-1.71,4.14-1.71
		s3.04,0.61,4.14,1.71c1.11,1.11,1.71,2.58,1.71,4.15c0,1.57-0.61,3.04-1.71,4.14c-1.1,1.1-2.58,1.71-4.14,1.71
		c-1.57,0-3.04-0.61-4.14-1.71c-1.1-1.1-1.71-2.57-1.71-4.14C183.49,171.98,184.09,170.51,185.2,169.41z M189.34,146.66
		c-1.57,0-3.04-0.61-4.14-1.71c-1.1-1.1-1.71-2.57-1.71-4.14s0.61-3.04,1.71-4.15c1.1-1.1,2.57-1.71,4.14-1.71
		c1.57,0,3.04,0.61,4.14,1.71c1.11,1.11,1.71,2.58,1.71,4.15s-0.61,3.04-1.71,4.15C192.38,146.05,190.91,146.66,189.34,146.66z
		 M189.34,113.9c-1.57,0-3.04-0.61-4.14-1.71c-1.1-1.1-1.71-2.57-1.71-4.14c0-1.57,0.61-3.04,1.71-4.15c1.1-1.1,2.57-1.71,4.14-1.71
		c1.57,0,3.04,0.61,4.14,1.71c2.29,2.29,2.29,6,0,8.29C192.38,113.29,190.91,113.9,189.34,113.9z M189.34,97.52
		c-1.57,0-3.04-0.61-4.14-1.71c-1.1-1.1-1.71-2.57-1.71-4.14s0.61-3.04,1.71-4.14c1.1-1.1,2.57-1.71,4.14-1.71
		c1.57,0,3.04,0.61,4.14,1.71c1.11,1.11,1.71,2.58,1.71,4.14s-0.61,3.04-1.71,4.14C192.38,96.92,190.91,97.52,189.34,97.52z
		 M189.34,81.15c-1.57,0-3.04-0.61-4.14-1.71c-1.1-1.1-1.71-2.57-1.71-4.15c0-1.57,0.61-3.04,1.71-4.14c1.1-1.1,2.57-1.71,4.14-1.71
		c1.57,0,3.04,0.61,4.14,1.71c2.29,2.29,2.29,6,0,8.29C192.38,80.54,190.91,81.15,189.34,81.15z M189.34,64.77
		c-1.57,0-3.04-0.61-4.15-1.71c-1.1-1.1-1.71-2.57-1.71-4.14s0.61-3.04,1.71-4.15s2.58-1.71,4.15-1.71c1.57,0,3.04,0.61,4.14,1.71
		c1.11,1.11,1.71,2.58,1.71,4.15s-0.61,3.04-1.71,4.15C192.38,64.16,190.91,64.77,189.34,64.77z M189.34,48.39
		c-1.57,0-3.04-0.61-4.14-1.71c-1.1-1.1-1.71-2.57-1.71-4.15s0.61-3.04,1.71-4.14c1.1-1.1,2.57-1.71,4.14-1.71
		c1.57,0,3.04,0.61,4.14,1.71c1.11,1.11,1.71,2.58,1.71,4.15s-0.61,3.04-1.71,4.15C192.38,47.78,190.91,48.39,189.34,48.39z
		 M41.95,195.79c-1.57,0-3.04-0.61-4.15-1.71c-1.11-1.11-1.71-2.58-1.71-4.14s0.61-3.04,1.71-4.14c1.1-1.1,2.58-1.71,4.15-1.71
		c1.57,0,3.04,0.61,4.14,1.71c1.11,1.11,1.71,2.58,1.71,4.14s-0.61,3.04-1.71,4.14C44.99,195.18,43.52,195.79,41.95,195.79z
		 M41.95,200.45c1.57,0,3.04,0.61,4.14,1.71c1.1,1.1,1.71,2.58,1.71,4.15s-0.61,3.04-1.71,4.14s-2.57,1.71-4.14,1.71
		c-1.57,0-3.04-0.61-4.15-1.71c-1.11-1.11-1.71-2.58-1.71-4.14c0-1.57,0.61-3.04,1.71-4.15C38.9,201.06,40.38,200.45,41.95,200.45z"
		/>
	<path class="st1" d="M50.16,165.39c4.53-4.53,4.53-11.9,0-16.43c-2.19-2.18-5.1-3.39-8.21-3.39c-3.11,0-6.03,1.2-8.21,3.39
		c-4.53,4.53-4.53,11.9,0,16.43c2.18,2.18,5.1,3.39,8.21,3.39C45.06,168.78,47.97,167.57,50.16,165.39z"/>
	<path class="st1" d="M189.49,194.99c-3.12,0-6.05,1.21-8.26,3.42c-2.18,2.18-3.4,5.09-3.42,8.18s1.16,5.98,3.31,8.14
		c2.14,2.14,5,3.31,8.07,3.31c3.12,0,6.05-1.21,8.26-3.42c2.19-2.19,3.41-5.09,3.43-8.18c0.02-3.09-1.16-5.98-3.32-8.14
		C195.42,196.16,192.55,194.99,189.49,194.99z"/>
</g>
<g>
	
		<ellipse transform="matrix(0.7071 -0.7071 0.7071 0.7071 -71.238 240.6397)" class="st2" cx="254.85" cy="206.31" rx="2.84" ry="2.84"/>
	
		<ellipse transform="matrix(0.7071 -0.7071 0.7071 0.7071 -107.6265 120.0329)" class="st2" cx="91.08" cy="189.93" rx="2.84" ry="2.84"/>
	
		<rect x="96.21" y="195.06" transform="matrix(0.7071 -0.7071 0.7071 0.7071 -111.0174 128.2184)" class="st2" width="6.11" height="6.11"/>
	
		<rect x="96.21" y="211.44" transform="matrix(0.7071 -0.7071 0.7071 0.7071 -122.5977 133.0151)" class="st2" width="6.11" height="6.11"/>
	
		<rect x="96.21" y="113.18" transform="matrix(0.7071 -0.7071 0.7071 0.7071 -53.1157 104.234)" class="st2" width="6.11" height="6.11"/>
	
		<rect x="79.83" y="31.29" transform="matrix(0.7071 -0.7071 0.7071 0.7071 -0.0108 68.6715)" class="st2" width="6.11" height="6.11"/>
	
		<rect x="63.46" y="113.18" transform="matrix(0.7071 -0.7071 0.7071 0.7071 -62.7091 81.0745)" class="st2" width="6.11" height="6.11"/>
	
		<rect x="96.21" y="178.69" transform="matrix(0.7071 -0.7071 0.7071 0.7071 -99.4366 123.4203)" class="st2" width="6.11" height="6.11"/>
	
		<rect x="96.21" y="96.8" transform="matrix(0.7071 -0.7071 0.7071 0.7071 -41.5355 99.4384)" class="st2" width="6.11" height="6.11"/>
	
		<rect x="79.83" y="211.44" transform="matrix(0.7071 -0.7071 0.7071 0.7071 -127.3949 121.4364)" class="st2" width="6.11" height="6.11"/>
	
		<rect x="79.83" y="129.56" transform="matrix(0.7071 -0.7071 0.7071 0.7071 -69.4927 97.4516)" class="st2" width="6.11" height="6.11"/>
	
		<rect x="63.46" y="80.42" transform="matrix(0.7071 -0.7071 0.7071 0.7071 -39.5486 71.4819)" class="st2" width="6.11" height="6.11"/>
	
		<rect x="63.46" y="31.29" transform="matrix(0.7071 -0.7071 0.7071 0.7071 -4.8075 57.0911)" class="st2" width="6.11" height="6.11"/>
	
		<rect x="79.83" y="47.67" transform="matrix(0.7071 -0.7071 0.7071 0.7071 -11.5911 73.4682)" class="st2" width="6.11" height="6.11"/>
	
		<ellipse transform="matrix(0.7071 -0.7071 0.7071 0.7071 10.9863 111.5987)" class="st2" cx="140.21" cy="42.54" rx="2.84" ry="2.84"/>
	
		<rect x="79.83" y="162.31" transform="matrix(0.7071 -0.7071 0.7071 0.7071 -92.6533 107.0449)" class="st2" width="6.11" height="6.11"/>
	<polygon class="st2" points="94.94,132.61 94.94,132.61 99.27,136.93 103.59,132.61 103.59,132.61 99.27,128.29 	"/>
	
		<rect x="128.96" y="113.18" transform="matrix(0.7071 -0.7071 0.7071 0.7071 -43.522 127.402)" class="st2" width="6.11" height="6.11"/>
	
		<rect x="128.96" y="162.31" transform="matrix(0.7071 -0.7071 0.7071 0.7071 -78.2642 141.7932)" class="st2" width="6.11" height="6.11"/>
	
		<rect x="128.96" y="129.56" transform="matrix(0.7071 -0.7071 0.7071 0.7071 -55.1027 132.1991)" class="st2" width="6.11" height="6.11"/>
	
		<rect x="112.59" y="31.29" transform="matrix(0.7071 -0.7071 0.7071 0.7071 9.5825 91.8321)" class="st2" width="6.11" height="6.11"/>
	
		<rect x="128.96" y="80.42" transform="matrix(0.7071 -0.7071 0.7071 0.7071 -20.3603 117.8089)" class="st2" width="6.11" height="6.11"/>
	
		<rect x="128.96" y="64.05" transform="matrix(0.7071 -0.7071 0.7071 0.7071 -8.7795 113.0117)" class="st2" width="6.11" height="6.11"/>
	
		<rect x="112.59" y="64.05" transform="matrix(0.7071 -0.7071 0.7071 0.7071 -13.5779 101.4263)" class="st2" width="6.11" height="6.11"/>
	
		<rect x="128.96" y="96.8" transform="matrix(0.7071 -0.7071 0.7071 0.7071 -31.9411 122.6061)" class="st2" width="6.11" height="6.11"/>
	
		<rect x="112.59" y="47.67" transform="matrix(0.7071 -0.7071 0.7071 0.7071 -1.9978 96.6288)" class="st2" width="6.11" height="6.11"/>
	
		<ellipse transform="matrix(0.7071 -0.7071 0.7071 0.7071 -114.408 136.4035)" class="st2" cx="107.45" cy="206.31" rx="2.84" ry="2.84"/>
	
		<rect x="96.21" y="64.05" transform="matrix(0.7071 -0.7071 0.7071 0.7071 -18.3749 89.845)" class="st2" width="6.11" height="6.11"/>
	
		<rect x="112.59" y="178.69" transform="matrix(0.7071 -0.7071 0.7071 0.7071 -94.6403 135.0022)" class="st2" width="6.11" height="6.11"/>
	
		<rect x="96.21" y="80.42" transform="matrix(0.7071 -0.7071 0.7071 0.7071 -29.9552 94.6417)" class="st2" width="6.11" height="6.11"/>
	
		<rect x="112.59" y="96.8" transform="matrix(0.7071 -0.7071 0.7071 0.7071 -36.7387 111.0199)" class="st2" width="6.11" height="6.11"/>
	<polygon class="st2" points="115.64,144.67 111.32,148.99 115.64,153.31 119.97,148.99 115.64,144.67 	"/>
	
		<rect x="112.59" y="162.31" transform="matrix(0.7071 -0.7071 0.7071 0.7071 -83.06 130.2055)" class="st2" width="6.11" height="6.11"/>
	
		<rect x="79.83" y="145.93" transform="matrix(0.7071 -0.7071 0.7071 0.7071 -81.073 102.2482)" class="st2" width="6.11" height="6.11"/>
	
		<ellipse transform="matrix(0.7071 -0.7071 0.7071 0.7071 -64.1146 61.3072)" class="st2" cx="41.95" cy="108.05" rx="2.84" ry="2.84"/>
	
		<rect x="30.7" y="64.05" transform="matrix(0.7071 -0.7071 0.7071 0.7071 -37.5613 43.5234)" class="st2" width="6.11" height="6.11"/>
	
		<ellipse transform="matrix(0.7071 -0.7071 0.7071 0.7071 -52.5342 56.5104)" class="st2" cx="41.95" cy="91.67" rx="2.84" ry="2.84"/>
	
		<rect x="30.7" y="113.18" transform="matrix(0.7071 -0.7071 0.7071 0.7071 -72.3024 57.9139)" class="st2" width="6.11" height="6.11"/>
	
		<rect x="30.7" y="129.56" transform="matrix(0.7071 -0.7071 0.7071 0.7071 -83.8827 62.7106)" class="st2" width="6.11" height="6.11"/>
	
		<rect x="30.7" y="80.42" transform="matrix(0.7071 -0.7071 0.7071 0.7071 -49.1416 48.32)" class="st2" width="6.11" height="6.11"/>
	
		<rect x="30.7" y="211.44" transform="matrix(0.7071 -0.7071 0.7071 0.7071 -141.7852 86.6952)" class="st2" width="6.11" height="6.11"/>
	
		<ellipse transform="matrix(0.7071 -0.7071 0.7071 0.7071 -17.7927 42.1203)" class="st2" cx="41.95" cy="42.54" rx="2.84" ry="2.84"/>
	
		<ellipse transform="matrix(0.7071 -0.7071 0.7071 0.7071 25.3757 146.3391)" class="st2" cx="189.34" cy="42.54" rx="2.84" ry="2.84"/>
	
		<rect x="259.98" y="64.05" transform="matrix(0.7071 -0.7071 0.7071 0.7071 29.591 205.6466)" class="st2" width="6.11" height="6.11"/>
	
		<rect x="178.1" y="64.05" transform="matrix(0.7071 -0.7071 0.7071 0.7071 5.608 147.7455)" class="st2" width="6.11" height="6.11"/>
	
		<rect x="178.1" y="80.42" transform="matrix(0.7071 -0.7071 0.7071 0.7071 -5.9722 152.5421)" class="st2" width="6.11" height="6.11"/>
	
		<rect x="178.1" y="113.18" transform="matrix(0.7071 -0.7071 0.7071 0.7071 -29.1324 162.1367)" class="st2" width="6.11" height="6.11"/>
	
		<rect x="178.1" y="96.8" transform="matrix(0.7071 -0.7071 0.7071 0.7071 -17.552 157.3401)" class="st2" width="6.11" height="6.11"/>
	
		<rect x="178.1" y="129.56" transform="matrix(0.7071 -0.7071 0.7071 0.7071 -40.7127 166.9334)" class="st2" width="6.11" height="6.11"/>
	
		<rect x="47.08" y="195.06" transform="matrix(0.7071 -0.7071 0.7071 0.7071 -125.4074 93.4775)" class="st2" width="6.11" height="6.11"/>
	
		<ellipse transform="matrix(0.7071 -0.7071 0.7071 0.7071 -59.3165 72.8832)" class="st2" cx="58.32" cy="108.05" rx="2.84" ry="2.84"/>
	
		<ellipse transform="matrix(0.7071 -0.7071 0.7071 0.7071 -47.7364 68.0868)" class="st2" cx="58.32" cy="91.67" rx="2.84" ry="2.84"/>
	
		<rect x="47.08" y="31.29" transform="matrix(0.7071 -0.7071 0.7071 0.7071 -9.6043 45.5104)" class="st2" width="6.11" height="6.11"/>
	
		<rect x="63.46" y="145.93" transform="matrix(0.7071 -0.7071 0.7071 0.7071 -85.8697 90.6678)" class="st2" width="6.11" height="6.11"/>
	
		<rect x="47.08" y="47.67" transform="matrix(0.7071 -0.7071 0.7071 0.7071 -21.1845 50.3069)" class="st2" width="6.11" height="6.11"/>
	
		<rect x="63.46" y="162.31" transform="matrix(0.7071 -0.7071 0.7071 0.7071 -97.45 95.4645)" class="st2" width="6.11" height="6.11"/>
	
		<rect x="30.7" y="195.06" transform="matrix(0.7071 -0.7071 0.7071 0.7071 -130.2048 81.8985)" class="st2" width="6.11" height="6.11"/>
	
		<rect x="63.46" y="211.44" transform="matrix(0.7071 -0.7071 0.7071 0.7071 -132.1917 109.856)" class="st2" width="6.11" height="6.11"/>
	
		<rect x="47.08" y="64.05" transform="matrix(0.7071 -0.7071 0.7071 0.7071 -32.7649 55.1041)" class="st2" width="6.11" height="6.11"/>
	
		<rect x="47.08" y="211.44" transform="matrix(0.7071 -0.7071 0.7071 0.7071 -136.9877 98.2742)" class="st2" width="6.11" height="6.11"/>
	
		<rect x="30.7" y="178.69" transform="matrix(0.7071 -0.7071 0.7071 0.7071 -118.6237 77.1006)" class="st2" width="6.11" height="6.11"/>
	
		<rect x="35.83" y="151.06" transform="matrix(0.7071 -0.7071 0.7071 0.7071 -98.8546 75.6953)" class="st2" width="12.23" height="12.23"/>
	
		<rect x="63.46" y="129.56" transform="matrix(0.7071 -0.7071 0.7071 0.7071 -74.2894 85.8712)" class="st2" width="6.11" height="6.11"/>
	
		<rect x="47.08" y="96.8" transform="matrix(0.7071 -0.7071 0.7071 0.7071 -55.9255 64.6975)" class="st2" width="6.11" height="6.11"/>
	
		<rect x="47.08" y="129.56" transform="matrix(0.7071 -0.7071 0.7071 0.7071 -79.0857 74.2899)" class="st2" width="6.11" height="6.11"/>
	
		<ellipse transform="matrix(0.7071 -0.7071 0.7071 0.7071 -24.5763 58.4946)" class="st2" cx="58.32" cy="58.91" rx="2.84" ry="2.84"/>
	
		<rect x="227.23" y="211.44" transform="matrix(0.7071 -0.7071 0.7071 0.7071 -84.2242 225.6599)" class="st2" width="6.11" height="6.11"/>
	
		<rect x="227.23" y="129.56" transform="matrix(0.7071 -0.7071 0.7071 0.7071 -26.3227 201.6743)" class="st2" width="6.11" height="6.11"/>
	
		<rect x="227.23" y="162.31" transform="matrix(0.7071 -0.7071 0.7071 0.7071 -49.4833 211.2676)" class="st2" width="6.11" height="6.11"/>
	
		<rect x="227.23" y="195.06" transform="matrix(0.7071 -0.7071 0.7071 0.7071 -72.6438 220.8631)" class="st2" width="6.11" height="6.11"/>
	
		<rect x="227.23" y="178.69" transform="matrix(0.7071 -0.7071 0.7071 0.7071 -61.0636 216.0643)" class="st2" width="6.11" height="6.11"/>
	
		<rect x="227.23" y="31.29" transform="matrix(0.7071 -0.7071 0.7071 0.7071 43.1592 172.8942)" class="st2" width="6.11" height="6.11"/>
	
		<rect x="227.23" y="64.05" transform="matrix(0.7071 -0.7071 0.7071 0.7071 19.9994 182.4891)" class="st2" width="6.11" height="6.11"/>
	
		<rect x="227.23" y="113.18" transform="matrix(0.7071 -0.7071 0.7071 0.7071 -14.7424 196.8776)" class="st2" width="6.11" height="6.11"/>
	
		<rect x="227.23" y="47.67" transform="matrix(0.7071 -0.7071 0.7071 0.7071 31.5789 177.6909)" class="st2" width="6.11" height="6.11"/>
	
		<rect x="210.85" y="195.06" transform="matrix(0.7071 -0.7071 0.7071 0.7071 -77.4405 209.2828)" class="st2" width="6.11" height="6.11"/>
	
		<rect x="210.85" y="178.69" transform="matrix(0.7071 -0.7071 0.7071 0.7071 -65.8603 204.4841)" class="st2" width="6.11" height="6.11"/>
	
		<ellipse transform="matrix(0.7071 -0.7071 0.7071 0.7071 -11.3487 188.6943)" class="st2" cx="222.09" cy="108.05" rx="2.84" ry="2.84"/>
	
		<rect x="210.85" y="211.44" transform="matrix(0.7071 -0.7071 0.7071 0.7071 -89.0209 214.0795)" class="st2" width="6.11" height="6.11"/>
	
		<rect x="210.85" y="129.56" transform="matrix(0.7071 -0.7071 0.7071 0.7071 -31.1193 190.094)" class="st2" width="6.11" height="6.11"/>
	
		<ellipse transform="matrix(0.7071 -0.7071 0.7071 0.7071 -34.5098 198.2881)" class="st2" cx="222.09" cy="140.8" rx="2.84" ry="2.84"/>
	
		<rect x="210.85" y="31.29" transform="matrix(0.7071 -0.7071 0.7071 0.7071 38.3625 161.314)" class="st2" width="6.11" height="6.11"/>
	
		<rect x="243.6" y="145.93" transform="matrix(0.7071 -0.7071 0.7071 0.7071 -33.1063 218.0513)" class="st2" width="6.11" height="6.11"/>
	
		<rect x="259.98" y="129.56" transform="matrix(0.7071 -0.7071 0.7071 0.7071 -16.7293 224.835)" class="st2" width="6.11" height="6.11"/>
	
		<ellipse transform="matrix(0.7071 -0.7071 0.7071 0.7071 9.8248 207.0566)" class="st2" cx="254.85" cy="91.67" rx="2.84" ry="2.84"/>
	
		<rect x="259.98" y="162.31" transform="matrix(0.7071 -0.7071 0.7071 0.7071 -39.8899 234.4283)" class="st2" width="6.11" height="6.11"/>
	
		<rect x="145.34" y="211.44" transform="matrix(0.7071 -0.7071 0.7071 0.7071 -108.208 167.7579)" class="st2" width="6.11" height="6.11"/>
	
		<rect x="259.98" y="113.18" transform="matrix(0.7071 -0.7071 0.7071 0.7071 -5.149 220.0383)" class="st2" width="6.11" height="6.11"/>
	
		<rect x="259.98" y="96.8" transform="matrix(0.7071 -0.7071 0.7071 0.7071 6.4321 215.2434)" class="st2" width="6.11" height="6.11"/>
	
		<rect x="243.6" y="47.67" transform="matrix(0.7071 -0.7071 0.7071 0.7071 36.3756 189.2712)" class="st2" width="6.11" height="6.11"/>
	
		<rect x="243.6" y="162.31" transform="matrix(0.7071 -0.7071 0.7071 0.7071 -44.6866 222.8479)" class="st2" width="6.11" height="6.11"/>
	
		<ellipse transform="matrix(0.7071 -0.7071 0.7071 0.7071 -6.556 200.2637)" class="st2" cx="238.47" cy="108.05" rx="2.84" ry="2.84"/>
	
		<rect x="243.6" y="211.44" transform="matrix(0.7071 -0.7071 0.7071 0.7071 -79.4274 237.2403)" class="st2" width="6.11" height="6.11"/>
	
		<rect x="243.6" y="195.06" transform="matrix(0.7071 -0.7071 0.7071 0.7071 -67.847 232.4435)" class="st2" width="6.11" height="6.11"/>
	
		<ellipse transform="matrix(0.7071 -0.7071 0.7071 0.7071 18.596 162.7228)" class="st2" cx="205.72" cy="58.91" rx="2.84" ry="2.84"/>
	
		<rect x="243.6" y="64.05" transform="matrix(0.7071 -0.7071 0.7071 0.7071 24.7961 194.0695)" class="st2" width="6.11" height="6.11"/>
	
		<rect x="243.6" y="129.56" transform="matrix(0.7071 -0.7071 0.7071 0.7071 -21.526 213.2546)" class="st2" width="6.11" height="6.11"/>
	
		<rect x="259.98" y="80.42" transform="matrix(0.7071 -0.7071 0.7071 0.7071 18.0125 210.4467)" class="st2" width="6.11" height="6.11"/>
	
		<rect x="145.34" y="31.29" transform="matrix(0.7071 -0.7071 0.7071 0.7071 19.1758 114.9926)" class="st2" width="6.11" height="6.11"/>
	
		<ellipse transform="matrix(0.7071 -0.7071 0.7071 0.7071 4.2026 127.9754)" class="st2" cx="156.59" cy="58.91" rx="2.84" ry="2.84"/>
	
		<rect x="145.34" y="47.67" transform="matrix(0.7071 -0.7071 0.7071 0.7071 7.5955 119.7893)" class="st2" width="6.11" height="6.11"/>
	
		<rect x="161.72" y="211.44" transform="matrix(0.7071 -0.7071 0.7071 0.7071 -103.4112 179.3383)" class="st2" width="6.11" height="6.11"/>
	
		<rect x="145.34" y="64.05" transform="matrix(0.7071 -0.7071 0.7071 0.7071 -3.9844 124.5871)" class="st2" width="6.11" height="6.11"/>
	
		<rect x="161.72" y="129.56" transform="matrix(0.7071 -0.7071 0.7071 0.7071 -45.5093 155.3531)" class="st2" width="6.11" height="6.11"/>
	
		<ellipse transform="matrix(0.7071 -0.7071 0.7071 0.7071 -4.5658 172.3151)" class="st2" cx="205.72" cy="91.67" rx="2.84" ry="2.84"/>
	
		<rect x="145.34" y="80.42" transform="matrix(0.7071 -0.7071 0.7071 0.7071 -15.5648 129.3838)" class="st2" width="6.11" height="6.11"/>
	
		<rect x="145.34" y="162.31" transform="matrix(0.7071 -0.7071 0.7071 0.7071 -73.4667 153.366)" class="st2" width="6.11" height="6.11"/>
	
		<rect x="145.34" y="178.69" transform="matrix(0.7071 -0.7071 0.7071 0.7071 -85.047 158.1627)" class="st2" width="6.11" height="6.11"/>
	
		<rect x="145.34" y="195.06" transform="matrix(0.7071 -0.7071 0.7071 0.7071 -96.6276 162.9611)" class="st2" width="6.11" height="6.11"/>
	
		<rect x="145.34" y="129.56" transform="matrix(0.7071 -0.7071 0.7071 0.7071 -50.3061 143.7727)" class="st2" width="6.11" height="6.11"/>
	
		<rect x="145.34" y="145.93" transform="matrix(0.7071 -0.7071 0.7071 0.7071 -61.8864 148.5694)" class="st2" width="6.11" height="6.11"/>
	
		<rect x="145.34" y="96.8" transform="matrix(0.7071 -0.7071 0.7071 0.7071 -27.1452 134.1806)" class="st2" width="6.11" height="6.11"/>
	
		<rect x="161.72" y="113.18" transform="matrix(0.7071 -0.7071 0.7071 0.7071 -33.929 150.5564)" class="st2" width="6.11" height="6.11"/>
	
		<rect x="161.72" y="162.31" transform="matrix(0.7071 -0.7071 0.7071 0.7071 -68.67 164.9464)" class="st2" width="6.11" height="6.11"/>
	
		<rect x="194.47" y="113.18" transform="matrix(0.7071 -0.7071 0.7071 0.7071 -24.3357 173.717)" class="st2" width="6.11" height="6.11"/>
	
		<rect x="194.47" y="80.42" transform="matrix(0.7071 -0.7071 0.7071 0.7071 -1.1745 164.125)" class="st2" width="6.11" height="6.11"/>
	
		<rect x="194.47" y="96.8" transform="matrix(0.7071 -0.7071 0.7071 0.7071 -12.7549 168.9218)" class="st2" width="6.11" height="6.11"/>
	
		<rect x="194.47" y="129.56" transform="matrix(0.7071 -0.7071 0.7071 0.7071 -35.916 178.5136)" class="st2" width="6.11" height="6.11"/>
	
		<rect x="194.47" y="31.29" transform="matrix(0.7071 -0.7071 0.7071 0.7071 33.5658 149.7336)" class="st2" width="6.11" height="6.11"/>
	
		<rect x="194.47" y="145.93" transform="matrix(0.7071 -0.7071 0.7071 0.7071 -47.4963 183.3103)" class="st2" width="6.11" height="6.11"/>
	
		<rect x="194.47" y="47.67" transform="matrix(0.7071 -0.7071 0.7071 0.7071 21.9855 154.5303)" class="st2" width="6.11" height="6.11"/>
	
		<rect x="194.47" y="64.05" transform="matrix(0.7071 -0.7071 0.7071 0.7071 10.4059 159.3283)" class="st2" width="6.11" height="6.11"/>
	
		<rect x="178.1" y="178.69" transform="matrix(0.7071 -0.7071 0.7071 0.7071 -75.4536 181.3216)" class="st2" width="6.11" height="6.11"/>
	
		<rect x="183.3" y="200.4" transform="matrix(0.7071 -0.7071 0.7071 0.7071 -90.5701 194.3683)" class="st2" width="12.07" height="12.23"/>
	
		<rect x="161.72" y="31.29" transform="matrix(0.7071 -0.7071 0.7071 0.7071 23.9725 126.573)" class="st2" width="6.11" height="6.11"/>
	
		<ellipse transform="matrix(0.7071 -0.7071 0.7071 0.7071 -48.9008 163.5447)" class="st2" cx="172.96" cy="140.8" rx="2.84" ry="2.84"/>
	
		<rect x="194.47" y="178.69" transform="matrix(0.7071 -0.7071 0.7071 0.7071 -70.657 192.9037)" class="st2" width="6.11" height="6.11"/>
	
		<rect x="194.47" y="162.31" transform="matrix(0.7071 -0.7071 0.7071 0.7071 -59.0767 188.107)" class="st2" width="6.11" height="6.11"/>
	
		<ellipse transform="matrix(0.7071 -0.7071 0.7071 0.7071 -14.9825 81.659)" class="st2" cx="91.08" cy="58.91" rx="2.84" ry="2.84"/>
	
		<ellipse transform="matrix(0.7071 -0.7071 0.7071 0.7071 -30.5365 142.372)" class="st2" cx="156.59" cy="108.05" rx="2.84" ry="2.84"/>
	
		<ellipse transform="matrix(0.7071 -0.7071 0.7071 0.7071 -68.0875 117.2175)" class="st2" cx="107.45" cy="140.8" rx="2.84" ry="2.84"/>
</g>
</svg>
